<svg width="295" height="74" viewBox="0 0 295 74" fill="none" xmlns="http://www.w3.org/2000/svg">
<ellipse cx="271.121" cy="30.9489" rx="13.5615" ry="13.5615" fill="#7A60A6"/>
<path fill-rule="evenodd" clip-rule="evenodd" d="M284.316 27.836C283.568 24.6506 281.687 21.8459 279.024 19.944C280.089 24.6294 278.87 29.5421 275.739 33.187C270.514 39.7 260.989 39.442 260.565 39.427C264.528 44.3659 271.383 45.9011 277.073 43.1241C282.764 40.347 285.772 33.9984 284.316 27.836Z" fill="#6D5298"/>
<path fill-rule="evenodd" clip-rule="evenodd" d="M283.304 27.8509C284.56 33.1843 282.223 38.7175 277.525 41.5367C272.827 44.3558 266.845 43.8142 262.729 40.1969C267.718 42.7226 273.752 41.8739 277.851 38.0701C281.95 34.2662 283.245 28.3121 281.098 23.1489C282.154 24.5451 282.905 26.1468 283.304 27.8509V27.8509Z" fill="#5F4589"/>
<path opacity="0.25" fill-rule="evenodd" clip-rule="evenodd" d="M259.41 29.6529C259.016 27.9769 259.669 26.2282 261.067 25.2223C262.464 24.2163 264.33 24.1512 265.794 25.0573C267.258 25.9634 268.033 27.6623 267.756 29.3617C267.479 31.0611 266.205 32.4264 264.529 32.8209C262.241 33.3595 259.949 31.9412 259.41 29.6529Z" fill="#F298BB"/>
<path opacity="0.25" fill-rule="evenodd" clip-rule="evenodd" d="M260.371 28.2039C260.144 27.2378 260.52 26.2297 261.326 25.6498C262.131 25.0698 263.207 25.0322 264.051 25.5544C264.895 26.0767 265.341 27.056 265.182 28.0357C265.022 29.0154 264.288 29.8025 263.322 30.0299C262.003 30.3405 260.682 29.523 260.371 28.2039Z" fill="#F298BB"/>
<path opacity="0.25" fill-rule="evenodd" clip-rule="evenodd" d="M269.914 24.407C269.52 22.731 270.173 20.9823 271.571 19.9763C272.968 18.9703 274.834 18.9052 276.298 19.8113C277.762 20.7174 278.536 22.4163 278.26 24.1157C277.983 25.8152 276.709 27.1805 275.033 27.575C272.745 28.1135 270.453 26.6952 269.914 24.407Z" fill="#F298BB"/>
<path opacity="0.25" fill-rule="evenodd" clip-rule="evenodd" d="M271.164 22.714C270.951 21.812 271.303 20.8709 272.055 20.3296C272.807 19.7882 273.811 19.7532 274.599 20.2408C275.387 20.7285 275.804 21.6427 275.655 22.5573C275.506 23.4719 274.821 24.2067 273.919 24.419C272.687 24.7089 271.454 23.9456 271.164 22.714Z" fill="#F298BB"/>
<path opacity="0.25" fill-rule="evenodd" clip-rule="evenodd" d="M264.677 21.8869C264.482 21.0601 264.805 20.1971 265.494 19.7006C266.183 19.204 267.104 19.1718 267.826 19.6189C268.549 20.0659 268.931 20.9042 268.794 21.7427C268.657 22.5812 268.029 23.2547 267.201 23.4489C266.073 23.714 264.943 23.0149 264.677 21.8869Z" fill="#F298BB"/>
<path opacity="0.25" fill-rule="evenodd" clip-rule="evenodd" d="M265.138 21.365C264.995 20.7575 265.371 20.1492 265.979 20.0062C266.586 19.8631 267.195 20.2396 267.338 20.8471C267.481 21.4545 267.104 22.0629 266.497 22.206C266.205 22.2747 265.898 22.2247 265.643 22.067C265.388 21.9093 265.206 21.6567 265.138 21.365Z" fill="#F298BB"/>
<path opacity="0.15" fill-rule="evenodd" clip-rule="evenodd" d="M275.606 19.9469C271.306 18.2518 266.408 19.3139 263.197 22.6379C259.446 26.5586 258.64 32.4449 261.197 37.2299C260.566 33.0309 261.687 28.7571 264.297 25.4079C267.914 21.0209 273.17 20.1849 275.606 19.9469Z" fill="#D6B6D8"/>
<path fill-rule="evenodd" clip-rule="evenodd" d="M275.607 19.947C275.607 19.947 268.115 17.671 263.264 23.32C258.412 28.969 260.644 36.297 261.193 37.23C261.193 37.23 256.625 29.495 262.603 22.741C268.182 16.436 275.607 19.947 275.607 19.947Z" fill="#D7CEE7"/>
<path fill-rule="evenodd" clip-rule="evenodd" d="M294.517 44.307C293.778 45.863 287.736 44.647 279.549 41.563C276.167 40.288 272.417 38.695 268.524 36.847C264.492 34.933 260.767 32.965 257.564 31.089C250.196 26.775 245.583 22.957 246.31 21.423C247.002 19.968 252.335 20.942 259.725 23.597C259.472 23.9917 259.238 24.3989 259.025 24.817C256.025 23.952 254.04 23.752 253.725 24.417C253.392 25.117 254.963 26.641 257.776 28.542C261.495 30.9641 265.382 33.1173 269.407 34.9849C273.283 36.8606 277.281 38.471 281.374 39.805C284.834 40.88 287.165 41.182 287.511 40.455C287.84 39.761 286.302 38.255 283.537 36.382C283.723 35.9595 283.887 35.528 284.029 35.089C290.95 39.221 295.219 42.828 294.517 44.307Z" fill="#D5E9F9"/>
<path fill-rule="evenodd" clip-rule="evenodd" d="M294.207 44.741C293.468 46.297 287.426 45.081 279.239 41.997C275.857 40.722 272.107 39.129 268.214 37.281C264.182 35.367 260.457 33.399 257.254 31.523C249.886 27.209 245.272 23.391 246.001 21.857C246.693 20.402 252.058 21.394 259.448 24.049C259.209 24.4447 258.994 24.8544 258.804 25.276C255.804 24.411 253.731 24.186 253.414 24.854C253.082 25.554 254.652 27.078 257.465 28.979C261.184 31.4012 265.071 33.5543 269.096 35.422C272.971 37.2977 276.969 38.9081 281.062 40.2421C284.522 41.317 286.853 41.619 287.199 40.892C287.528 40.198 286.071 38.745 283.307 36.868C283.492 36.445 283.707 36.045 283.85 35.606C290.777 39.734 294.909 43.262 294.207 44.741Z" fill="#F49639"/>
<path fill-rule="evenodd" clip-rule="evenodd" d="M294.517 44.307C293.778 45.863 287.736 44.647 279.549 41.563C276.167 40.288 272.417 38.695 268.524 36.847C264.492 34.933 260.767 32.965 257.564 31.089C250.196 26.775 245.583 22.957 246.31 21.423C247.002 19.968 252.335 20.942 259.725 23.597C259.472 23.9917 259.238 24.3989 259.025 24.817C256.025 23.952 254.04 23.752 253.725 24.417C253.392 25.117 254.963 26.641 257.776 28.542C261.495 30.9641 265.382 33.1173 269.407 34.9849C273.283 36.8606 277.281 38.471 281.374 39.805C284.834 40.88 287.165 41.182 287.511 40.455C287.84 39.761 286.302 38.255 283.537 36.382C283.723 35.9595 283.887 35.528 284.029 35.089C290.95 39.221 295.219 42.828 294.517 44.307Z" fill="#FFE568"/>
<path fill-rule="evenodd" clip-rule="evenodd" d="M291.327 40.431C292.704 41.768 294.941 43.338 293.827 44.279C292.713 45.22 283.969 43.526 267.327 35.786C267.327 35.786 284.219 42.323 288.586 43.092C292.922 43.854 293.53 43.268 291.327 40.431Z" fill="#FCC231"/>
<path fill-rule="evenodd" clip-rule="evenodd" d="M254.283 22.178C252.442 21.805 247.903 20.693 247.033 21.539C246.163 22.385 251.353 26.809 253.227 27.865C253.227 27.865 248.571 24.106 248.369 22.373C248.218 21.08 254.283 22.178 254.283 22.178Z" fill="#FFEDB2"/>
<path fill-rule="evenodd" clip-rule="evenodd" d="M258.989 24.301C257.823 23.9387 256.634 23.6517 255.43 23.442C253.714 23.17 251.666 22.897 251.877 24.064C252.088 25.231 253.65 26.664 256.815 28.864C259.98 31.064 265.324 34.064 265.324 34.064C265.324 34.064 257.502 30.134 254.506 28.034C251.51 25.934 249.706 23.808 250.12 22.894C250.642 21.753 255.389 22.519 259.208 24.026L258.989 24.301Z" fill="#FFDA60"/>
<path fill-rule="evenodd" clip-rule="evenodd" d="M142.427 47.12C142.427 47.12 128.502 49.161 117.232 45.169C116.917 45.0556 116.744 44.7159 116.838 44.394C117.024 43.754 117.338 42.628 117.646 41.294C118.366 38.179 142.427 47.12 142.427 47.12Z" fill="#A9CBD3"/>
<path fill-rule="evenodd" clip-rule="evenodd" d="M117.647 41.294C117.456 42.12 117.264 42.865 117.1 43.465C128.353 47.928 142.427 47.12 142.427 47.12C142.427 47.12 118.367 38.179 117.647 41.294Z" fill="#8CB8BF"/>
<path fill-rule="evenodd" clip-rule="evenodd" d="M119.939 28.174C119.939 28.174 120.046 34.2349 118.389 37.353C116.732 40.471 136.748 47.4349 142.427 47.1189C142.427 47.1189 134.633 40.5519 130.36 35.2989C127.585 32.0359 123.987 29.5756 119.939 28.174Z" fill="#CCE4EA"/>
<path opacity="0.5" fill-rule="evenodd" clip-rule="evenodd" d="M118.39 37.353C116.734 40.471 136.749 47.435 142.428 47.119C133.357 44.212 120.928 33.892 120.928 33.892C120.859 31.9493 120.525 30.0251 119.935 28.173C119.935 28.173 120.046 34.233 118.39 37.353Z" fill="#A9CBD3"/>
<path fill-rule="evenodd" clip-rule="evenodd" d="M113.835 29.8459C113.255 29.9459 110.558 30.3989 107.708 30.646C103.426 31.02 99.7289 30.2879 100.208 31.436C100.636 32.461 107.327 39.027 116.93 42.6359C126.533 46.2449 138.53 47.436 142.43 47.1219C136.906 45.082 131.584 42.5292 126.536 39.4969C118.586 34.6509 115.499 29.5449 113.835 29.8459Z" fill="#F7FCFE"/>
<path fill-rule="evenodd" clip-rule="evenodd" d="M142.428 47.119C139.205 43.715 136.421 39.9212 134.139 35.826C130.145 28.118 129.198 22.204 128.775 21.639C128.352 21.074 126.575 22.426 123.733 24.605C122.371 25.6861 121.103 26.88 119.941 28.174C119.941 28.174 133.435 44.011 142.428 47.119Z" fill="#F7FCFE"/>
<path fill-rule="evenodd" clip-rule="evenodd" d="M111.697 31.0551C107.075 32.2111 101.482 31.2631 102.772 32.8481C104.062 34.4331 116.808 44.2811 135.041 45.9081C135.041 45.9081 119.109 41.9451 112.055 37.6531C103.768 32.6101 106.839 32.6711 108.155 32.3701C109.401 32.1327 110.599 31.6883 111.697 31.0551Z" fill="white"/>
<path fill-rule="evenodd" clip-rule="evenodd" d="M139.805 45.388C139.805 45.388 127.405 35.805 121.297 28.403C122.856 26.3622 124.787 24.6337 126.987 23.308C125.692 24.47 124.549 25.7916 123.587 27.241C123.219 27.96 123.946 29.471 125.176 31.054C128.079 34.807 139.805 45.388 139.805 45.388Z" fill="white"/>
<path fill-rule="evenodd" clip-rule="evenodd" d="M255.963 69.588C255.963 69.588 245.588 74.041 236.029 73.269C235.761 73.2463 235.557 73.0182 235.564 72.749C235.577 72.214 235.587 71.277 235.552 70.179C235.467 67.616 255.963 69.588 255.963 69.588Z" fill="#A9CBD3"/>
<path fill-rule="evenodd" clip-rule="evenodd" d="M235.552 70.18C235.574 70.86 235.578 71.48 235.576 71.98C245.219 73.12 255.964 69.593 255.964 69.593C255.964 69.593 235.467 67.616 235.552 70.18Z" fill="#8CB8BF"/>
<path fill-rule="evenodd" clip-rule="evenodd" d="M234.625 59.537C234.625 59.537 235.957 64.214 235.316 66.973C234.675 69.732 251.627 71.004 255.964 69.589C251.873 67.6588 247.932 65.4273 244.172 62.913C241.348 60.9553 238.052 59.7896 234.625 59.537V59.537Z" fill="#CCE4EA"/>
<path opacity="0.5" fill-rule="evenodd" clip-rule="evenodd" d="M235.316 66.973C234.675 69.731 251.627 71.004 255.964 69.589C248.333 69.205 236.574 63.766 236.574 63.766C236.12 62.2742 235.465 60.8513 234.626 59.537C234.626 59.537 235.957 64.216 235.316 66.973Z" fill="#A9CBD3"/>
<path fill-rule="evenodd" clip-rule="evenodd" d="M230.236 62.09C229.808 62.29 227.81 63.19 225.651 63.975C222.408 65.148 219.391 65.342 220 66.133C220.543 66.839 227.084 70.55 235.272 71.366C243.46 72.182 253.006 70.632 255.963 69.588C251.259 69.1452 246.608 68.263 242.069 66.953C234.91 64.835 231.468 61.514 230.236 62.09Z" fill="#F7FCFE"/>
<path fill-rule="evenodd" clip-rule="evenodd" d="M255.963 69.588C252.763 67.6132 249.822 65.2462 247.209 62.5419C242.524 57.3899 240.571 52.9999 240.126 52.6489C239.681 52.298 238.582 53.713 236.826 55.9879C235.994 57.107 235.258 58.2942 234.626 59.5369C234.626 59.5369 248.352 69.032 255.963 69.588Z" fill="#F7FCFE"/>
<path fill-rule="evenodd" clip-rule="evenodd" d="M228.827 63.469C225.483 65.317 220.951 65.736 222.278 66.699C223.605 67.662 235.516 72.669 249.986 70.172C249.986 70.172 236.818 70.385 230.465 68.51C223 66.31 225.395 65.723 226.349 65.219C227.267 64.7786 228.105 64.187 228.827 63.469Z" fill="white"/>
<path fill-rule="evenodd" clip-rule="evenodd" d="M253.573 68.787C253.573 68.787 241.983 63.915 235.724 59.435C236.512 57.5313 237.652 55.7933 239.084 54.312C238.319 55.48 237.705 56.7404 237.257 58.063C237.12 58.696 237.995 59.718 239.275 60.692C242.305 63 253.573 68.787 253.573 68.787Z" fill="white"/>
<path fill-rule="evenodd" clip-rule="evenodd" d="M107.002 69.178H101.596C101.154 65.516 98.048 62.7603 94.3595 62.759L94.3596 59.359C94.3596 55.2124 90.998 51.8509 86.8516 51.851C82.7051 51.8509 79.3435 55.2124 79.3435 59.359V61.5799C78.2882 59.4351 75.8934 58.3009 73.5653 58.8433C71.2372 59.3857 69.5903 61.4615 69.5916 63.852V69.178H63.2695C62.0272 69.1785 61.0205 70.1857 61.0205 71.428C61.0211 72.6699 62.0277 73.6765 63.2697 73.677H107C108.243 73.677 109.25 72.6702 109.25 71.428C109.25 70.1858 108.244 69.1786 107.002 69.178Z" fill="white"/>
<circle cx="55.2926" cy="15.068" r="15.068" fill="#FFD348"/>
<g style="mix-blend-mode:multiply" opacity="0.3">
<path fill-rule="evenodd" clip-rule="evenodd" d="M51.5444 6.65903C50.4714 5.45903 48.7174 3.65103 47.3514 2.25903C46.5361 2.76414 45.7712 3.34649 45.0674 3.99804C47.5094 6.22704 49.8385 8.22903 50.5015 8.93704C51.3154 9.81103 53.5013 8.85104 51.5444 6.65903Z" fill="#E85D1C"/>
<path fill-rule="evenodd" clip-rule="evenodd" d="M68.4426 22.4169C65.3766 20.61 59.6626 17.2249 57.2236 15.662C53.8076 13.4729 51.2076 13.992 50.1726 13.127C49.4226 12.5009 45.4136 8.44095 43.0776 6.25195C42.7452 6.71235 42.4391 7.19111 42.1606 7.68594C44.0267 9.74895 47.0286 13.058 47.6916 13.7309C48.6686 14.7249 48.2836 16.1789 47.1196 15.142C46.3947 14.4959 43.2666 12.0419 41.0076 10.2789C40.6594 11.3114 40.4247 12.3787 40.3076 13.4619C43.6756 16.4989 47.8296 19.34 49.0886 19.4699C50.4996 19.616 52.0757 16.8839 53.8057 17.8499C55.1057 18.5739 62.5056 23.2299 66.1417 25.52C67.0382 24.5882 67.8114 23.5454 68.4426 22.4169Z" fill="#E85D1C"/>
<path fill-rule="evenodd" clip-rule="evenodd" d="M58.859 29.7069C60.6858 29.2631 62.4131 28.4802 63.951 27.3989C61.015 25.8159 56.3621 23.3499 55.0341 22.8879C53.051 22.1969 53.2561 25.6689 51.6791 25.7649C50.2921 25.8489 45.5441 22.6349 40.6221 18.4869C40.6331 18.5359 40.6421 18.5869 40.6531 18.6329C42.6226 26.7184 50.7736 31.6764 58.859 29.7069Z" fill="#E85D1C"/>
<path fill-rule="evenodd" clip-rule="evenodd" d="M58.0166 0.249023C58.1396 1.05702 58.7076 1.91203 60.2006 3.13403C62.5396 5.04803 64.4525 6.28203 65.2356 7.11002C66.0187 7.93803 63.8546 8.25503 64.9896 9.63103C66.6158 11.0685 68.3843 12.3364 70.2677 13.415C70.1969 12.7709 70.0853 12.132 69.9336 11.502C68.5273 5.7295 63.8601 1.32234 58.0166 0.249023Z" fill="#E85D1C"/>
<path fill-rule="evenodd" clip-rule="evenodd" d="M57.7223 8.93997C56.7383 7.52897 58.2823 5.97897 57.1353 4.33997C55.9801 2.86694 54.7449 1.45849 53.4353 0.120972C52.8617 0.192436 52.2924 0.296265 51.7303 0.431976C51.1248 0.580757 50.5289 0.766777 49.9463 0.988976C51.5767 2.71493 53.0842 4.55274 54.4583 6.48898C55.0582 7.62497 53.2173 9.48898 54.1012 10.168C54.8402 10.734 65.8662 17.878 69.4622 20.206C69.8627 19.1049 70.1332 17.9608 70.2681 16.797C67.1603 15.037 58.5273 10.095 57.7223 8.93997Z" fill="#E85D1C"/>
</g>
<path opacity="0.3" fill-rule="evenodd" clip-rule="evenodd" d="M68.7159 8.21598C67.068 4.96824 64.296 2.43005 60.9159 1.07397C61.1019 1.39297 64.7769 7.86398 60.8519 16.262C56.9159 24.682 46.5469 26.912 46.084 27.008C51.6705 31.3049 59.4883 31.1592 64.9109 26.6571C70.3334 22.155 71.9143 14.4974 68.718 8.21598H68.7159Z" fill="#E85D1C"/>
<path opacity="0.3" fill-rule="evenodd" clip-rule="evenodd" d="M67.6143 8.47995C70.3782 13.9174 69.309 20.518 64.97 24.805C60.631 29.092 54.0179 30.0813 48.6143 27.252C54.6752 28.6698 60.9778 26.1627 64.4087 20.969C67.8396 15.7754 67.6726 8.99443 63.9902 3.97595C65.4998 5.20758 66.7343 6.7419 67.6143 8.47995Z" fill="#E85D1C"/>
<path opacity="0.15" fill-rule="evenodd" clip-rule="evenodd" d="M57.2083 1.96398C52.1117 1.26339 47.0947 3.70216 44.4973 8.14298C41.4722 13.3701 42.1483 19.9493 46.1733 24.452C44.3852 20.0777 44.4712 15.161 46.4114 10.852C49.1713 5.14998 54.6363 2.86198 57.2083 1.96398Z" fill="#FFEDB2"/>
<path fill-rule="evenodd" clip-rule="evenodd" d="M57.2091 1.96298C57.2091 1.96298 48.5091 1.47498 44.7481 8.86298C40.9871 16.251 45.3331 23.588 46.1731 24.452C46.1731 24.452 39.1961 17.289 43.8811 8.41098C48.2541 0.121979 57.2091 1.96298 57.2091 1.96298Z" fill="#FFEDB2"/>
<circle cx="208.588" cy="9.26294" r="3.948" fill="white" fill-opacity="0.2"/>
<path fill-rule="evenodd" clip-rule="evenodd" d="M208.589 13.889C208.412 13.8892 208.242 13.8191 208.117 13.6939C207.991 13.5688 207.921 13.399 207.921 13.222V5.30396C207.921 5.1269 207.991 4.95709 208.117 4.83198C208.242 4.70686 208.412 4.6367 208.589 4.63696C208.957 4.63697 209.256 4.93559 209.256 5.30396V13.222C209.256 13.5906 208.957 13.8891 208.589 13.889H208.589Z" fill="white" fill-opacity="0.298039"/>
<path fill-rule="evenodd" clip-rule="evenodd" d="M213.214 9.26295C213.214 9.44001 213.144 9.60992 213.019 9.73523C212.894 9.86053 212.724 9.93095 212.547 9.93095H204.629C204.452 9.93095 204.282 9.86053 204.157 9.73523C204.032 9.60993 203.962 9.44002 203.962 9.26295C203.962 8.89434 204.261 8.59583 204.629 8.59595H212.547C212.915 8.59595 213.214 8.89458 213.214 9.26295Z" fill="white" fill-opacity="0.298039"/>
<path fill-rule="evenodd" clip-rule="evenodd" d="M211.389 9.26295C211.389 9.63148 211.091 9.93039 210.722 9.93095H206.456C206.087 9.93093 205.788 9.63186 205.788 9.26295C205.789 8.89445 206.088 8.59597 206.456 8.59595H210.722C211.09 8.59595 211.389 8.89458 211.389 9.26295Z" fill="white"/>
<path fill-rule="evenodd" clip-rule="evenodd" d="M208.589 12.064C208.412 12.0643 208.242 11.994 208.116 11.8686C207.991 11.7433 207.921 11.5733 207.921 11.396V7.13101C207.921 6.7621 208.22 6.46303 208.589 6.46301C208.957 6.46358 209.256 6.76248 209.256 7.13101V11.398C209.255 11.766 208.957 12.064 208.589 12.064Z" fill="white"/>
<circle cx="29.2029" cy="37.5599" r="3.948" fill="white" fill-opacity="0.2"/>
<path fill-rule="evenodd" clip-rule="evenodd" d="M29.2031 42.186C28.8347 42.186 28.5361 41.8873 28.5361 41.519V33.601C28.5363 33.2324 28.835 32.9338 29.2034 32.934H29.2031C29.3802 32.9337 29.5501 33.0038 29.6754 33.129C29.8007 33.2541 29.8712 33.4239 29.8712 33.601V41.519C29.8712 41.696 29.8007 41.8659 29.6754 41.991C29.5501 42.1161 29.3802 42.1862 29.2031 42.186V42.186Z" fill="white" fill-opacity="0.298039"/>
<path fill-rule="evenodd" clip-rule="evenodd" d="M33.8292 37.5599C33.8292 37.7371 33.7588 37.907 33.6335 38.0323C33.5082 38.1576 33.3383 38.228 33.1612 38.2279H25.2441C25.0671 38.2279 24.8973 38.1575 24.7722 38.0322C24.647 37.9069 24.5769 37.737 24.5771 37.5599C24.5773 37.1913 24.876 36.8928 25.2444 36.8929H33.1611C33.3382 36.8927 33.5081 36.9628 33.6334 37.0879C33.7587 37.2131 33.8292 37.3829 33.8292 37.5599V37.5599Z" fill="white" fill-opacity="0.298039"/>
<path fill-rule="evenodd" clip-rule="evenodd" d="M32.0034 37.56C32.0036 37.737 31.9335 37.9069 31.8083 38.0322C31.6832 38.1575 31.5134 38.228 31.3364 38.228H27.0704C26.8932 38.228 26.7233 38.1576 26.598 38.0323C26.4728 37.907 26.4023 37.7371 26.4023 37.56C26.4024 37.3829 26.4728 37.2131 26.5981 37.0879C26.7234 36.9628 26.8934 36.8927 27.0704 36.8929L31.3364 36.893C31.7048 36.893 32.0034 37.1916 32.0034 37.56Z" fill="white"/>
<path fill-rule="evenodd" clip-rule="evenodd" d="M29.2031 40.361C28.8346 40.3605 28.5361 40.0615 28.5361 39.693V35.428C28.5359 35.2509 28.606 35.081 28.7311 34.9557C28.8563 34.8304 29.0261 34.76 29.2031 34.76C29.3804 34.7597 29.5505 34.83 29.6758 34.9554C29.8011 35.0807 29.8714 35.2508 29.8712 35.428V39.694C29.8707 40.0625 29.5717 40.361 29.2032 40.361L29.2031 40.361Z" fill="white"/>
<path fill-rule="evenodd" clip-rule="evenodd" d="M10.939 3.46207C10.9387 2.87496 11.4149 2.39836 12.0024 2.39807C12.5901 2.39778 13.0667 2.87391 13.067 3.46153C13.0673 4.04916 12.5912 4.52577 12.0035 4.52607C11.7213 4.52621 11.4504 4.41417 11.2508 4.21461C11.0511 4.01506 10.939 3.74435 10.939 3.46207H10.939Z" fill="#FFEDB2"/>
<path fill-rule="evenodd" clip-rule="evenodd" d="M54.2285 44.2151C54.229 43.6276 54.7057 43.1517 55.2932 43.1521C55.8807 43.1525 56.3567 43.629 56.3564 44.2165C56.3563 44.804 55.8799 45.2802 55.2924 45.2801C55.01 45.2801 54.7393 45.1678 54.5397 44.9681C54.3402 44.7683 54.2283 44.4974 54.2285 44.2151Z" fill="#FFEDB2"/>
<path fill-rule="evenodd" clip-rule="evenodd" d="M232.497 36.0101C232.497 35.5797 232.756 35.1917 233.154 35.0271C233.552 34.8624 234.009 34.9534 234.313 35.2577C234.618 35.562 234.709 36.0197 234.544 36.4173C234.379 36.8149 233.991 37.0741 233.561 37.0741C232.973 37.0741 232.497 36.5977 232.497 36.0101Z" fill="#FFEDB2"/>
<path fill-rule="evenodd" clip-rule="evenodd" d="M161.456 4.63801C161.456 4.20766 161.715 3.81968 162.113 3.65499C162.51 3.49031 162.968 3.58135 163.272 3.88566C163.577 4.18996 163.668 4.64762 163.503 5.0452C163.338 5.44279 162.95 5.70202 162.52 5.702C161.932 5.70199 161.456 5.22562 161.456 4.63801Z" fill="#FFEDB2"/>
<path fill-rule="evenodd" clip-rule="evenodd" d="M157.008 31.956C157.007 31.5252 157.267 31.1366 157.664 30.9714C158.062 30.8062 158.521 30.8971 158.825 31.2016C159.13 31.5061 159.222 31.9643 159.057 32.3624C158.892 32.7605 158.504 33.02 158.073 33.02C157.485 33.02 157.008 32.5438 157.008 31.956Z" fill="#FFEDB2"/>
<path fill-rule="evenodd" clip-rule="evenodd" d="M220.979 2.39706C220.979 1.96621 221.238 1.57781 221.636 1.41303C222.034 1.24825 222.492 1.33955 222.797 1.64436C223.101 1.94916 223.192 2.4074 223.027 2.80534C222.862 3.20326 222.473 3.46248 222.042 3.46206C221.455 3.46149 220.979 2.98484 220.979 2.39706Z" fill="#FFEDB2"/>
<path fill-rule="evenodd" clip-rule="evenodd" d="M101.585 11.7451C101.585 11.3142 101.844 10.9258 102.243 10.7611C102.641 10.5963 103.099 10.6876 103.403 10.9924C103.708 11.2972 103.799 11.7554 103.634 12.1534C103.468 12.5513 103.08 12.8105 102.649 12.8101C102.367 12.8101 102.096 12.6978 101.896 12.4981C101.697 12.2983 101.585 12.0274 101.585 11.7451Z" fill="#FFEDB2"/>
<path fill-rule="evenodd" clip-rule="evenodd" d="M0 24.5461C0.000244141 23.9579 0.476868 23.4818 1.06445 23.4821C1.6521 23.4823 2.12823 23.9589 2.12799 24.5466C2.12769 25.1342 1.65112 25.6103 1.06348 25.6101C0.476074 25.6098 0 25.1335 0 24.5461Z" fill="#FFEDB2"/>
</svg>
