<svg width="375" height="132" viewBox="0 0 375 132" fill="none" xmlns="http://www.w3.org/2000/svg">
<mask id="mask0_0_2898" style="mask-type:alpha" maskUnits="userSpaceOnUse" x="0" y="0" width="375" height="132">
<rect width="374.788" height="131.844" fill="white"/>
</mask>
<g mask="url(#mask0_0_2898)">
<mask id="mask1_0_2898" style="mask-type:alpha" maskUnits="userSpaceOnUse" x="-1" y="17" width="376" height="129">
<rect x="-0.0371094" y="17.456" width="374.825" height="128.388" fill="white"/>
</mask>
<g mask="url(#mask1_0_2898)">
<path fill-rule="evenodd" clip-rule="evenodd" d="M283.074 133.256C287.337 126.019 291.355 116.841 287.231 113.802C275.69 105.229 275.69 133.585 263.82 119.408C257.556 112.154 244.037 72.257 229.859 83.798C217.659 93.69 241.399 114.792 231.837 123.698C223.264 131.941 217.659 104.904 210.075 106.223C201.175 107.542 201.175 128.315 191.281 125.017C179.74 121.39 196.886 95.672 183.368 92.704C168.201 89.077 167.868 114.795 159.628 120.071C157.979 118.423 157.65 116.444 156.99 113.806C155.012 106.882 148.747 72.261 136.877 78.526C122.699 86.109 139.515 108.526 138.525 118.426C137.206 133.263 117.753 104.578 113.466 104.248C100.866 103.389 117.623 125.671 123.752 133.264L283.074 133.256Z" fill="#90CCD6"/>
<path fill-rule="evenodd" clip-rule="evenodd" d="M18.5597 22.984C13.9277 22.997 9.07269 23.929 5.44672 26.999C2.55444 29.6076 0.713013 33.1817 0.2677 37.051C-0.0302124 39.2026 -0.0778809 41.3814 0.125732 43.544C0.269104 45.9603 0.904419 48.3219 1.99274 50.484C4.3407 54.609 8.23267 57.6311 12.8107 58.884C17.0193 60.2111 21.5473 60.1194 25.6987 58.623C28.6686 57.431 31.2227 55.3926 33.0437 52.761C36.6688 47.3795 37.6615 40.6457 35.7437 34.447C34.8486 31.456 33.1343 28.7752 30.7947 26.708C28.1774 24.5302 24.939 23.2352 21.5417 23.008C20.5499 22.9297 19.554 22.9193 18.5608 22.977C18.1607 22.999 18.1607 23.617 18.5607 23.595C22.0485 23.3096 25.5403 24.0941 28.5707 25.844C31.1163 27.4483 33.1281 29.7726 34.3507 32.522C36.8292 38.219 36.6348 44.7251 33.8207 50.264C32.4648 52.9808 30.3864 55.2713 27.8137 56.884C24.505 58.7775 20.6693 59.541 16.8877 59.059C12.2106 58.6686 7.84125 56.5685 4.61475 53.16C3.02014 51.3878 1.87402 49.2589 1.27271 46.952C0.761963 44.7835 0.544373 42.5563 0.625732 40.33C0.542175 36.4507 1.70166 32.6463 3.93469 29.473C6.51874 26.114 10.5347 24.416 14.6407 23.852C15.9404 23.6817 17.2499 23.5982 18.5607 23.602C18.7314 23.602 18.8697 23.4636 18.8697 23.293C18.8697 23.1223 18.7314 22.984 18.5607 22.984" fill="#003849"/>
<path fill-rule="evenodd" clip-rule="evenodd" d="M7.05408 26.774C9.10608 27.987 11.7401 28.567 13.4311 30.324C15.475 32.447 12.8981 34.778 11.2551 36.124C10.3149 36.7927 9.51794 37.6427 8.91107 38.624C8.35876 39.7225 8.23065 40.986 8.55109 42.173C8.88348 43.202 9.50903 44.1115 10.3511 44.79C11.2156 45.4233 11.9568 46.2096 12.5381 47.11C13.2841 48.587 12.548 50.355 11.6381 51.579C10.4433 53.0368 8.97034 54.2422 7.30505 55.125C7.17065 55.2168 7.13013 55.3969 7.21222 55.5374C7.29431 55.6779 7.47113 55.731 7.61707 55.659C10.178 54.159 13.282 51.887 13.4551 48.624C13.5941 46.006 11.04 45.053 9.72906 43.224C8.94861 42.0774 8.77625 40.6223 9.26709 39.325C9.83582 38.1887 10.6905 37.22 11.7471 36.514C13.3951 35.169 15.7911 32.957 14.436 30.621C13.66 29.5359 12.5934 28.6919 11.3591 28.186C10.0411 27.516 8.64508 26.994 7.37006 26.24C7.22382 26.1652 7.04462 26.2175 6.96155 26.3593C6.87848 26.501 6.92035 26.6829 7.05707 26.774" fill="#003849"/>
<path fill-rule="evenodd" clip-rule="evenodd" d="M19.2072 23.589C18.4512 25.889 17.9391 28.712 18.8622 31.036C19.7402 33.247 21.9172 33.949 24.1061 34.095C25.0022 34.0664 25.8972 34.1774 26.7592 34.424C27.6882 34.8 27.7012 35.788 27.5502 36.652C27.2621 38.305 26.3372 39.673 25.7881 41.231C25.2737 42.75 25.5192 44.4237 26.4482 45.731C28.3052 48.604 31.8192 48.415 34.8262 48.757C35.2212 48.802 35.2172 48.183 34.8262 48.139C32.1772 47.839 28.8732 48.072 27.1262 45.634C26.573 44.9052 26.2237 44.0424 26.1141 43.134C26.0871 42.3348 26.2589 41.5414 26.6142 40.825C27.3248 39.4954 27.8525 38.0759 28.1832 36.605C28.3896 35.8051 28.2114 34.9547 27.7012 34.305C27.1435 33.8443 26.4445 33.5894 25.7212 33.583C23.7592 33.376 21.4582 33.573 20.0572 31.883C18.2812 29.737 19.0192 26.153 19.8082 23.757C19.9332 23.378 19.3362 23.216 19.2082 23.593" fill="#003849"/>
<path fill-rule="evenodd" clip-rule="evenodd" d="M15.3747 59.008C17.1718 57.0745 18.0536 54.4632 17.7967 51.836C17.4353 49.9011 16.8723 48.0095 16.1167 46.192C15.4507 44.5892 15.243 42.8329 15.5167 41.119C15.8807 39.73 17.6847 38.455 19.0667 39.368C20.2327 40.139 20.4437 42.031 20.5967 43.288C20.7967 44.903 20.7967 46.533 20.9847 48.15C21.0685 48.7133 21.1823 49.2718 21.3257 49.823C21.5347 50.765 21.3877 51.764 21.6257 52.706C21.7477 53.174 22.0597 53.906 22.5977 54.025C23.0747 54.125 23.4067 53.689 23.6197 53.331C23.9919 52.612 24.3176 51.8698 24.5947 51.109C24.7341 50.7584 24.9048 50.4211 25.1047 50.101C25.3707 49.701 25.5837 49.653 26.0807 49.628C28.8017 49.495 29.7107 52.544 30.5497 54.585C30.6987 54.948 31.2977 54.785 31.1497 54.421C30.4177 52.64 29.6947 50.168 27.7787 49.306C26.9615 48.9191 26.0247 48.8703 25.1717 49.17C24.6762 49.541 24.3111 50.0595 24.1287 50.651C23.8287 51.331 23.5857 52.04 23.2557 52.707C23.0287 53.166 22.8127 53.707 22.4477 53.078C22.0932 52.1325 21.9357 51.1246 21.9847 50.116C21.9207 49.516 21.7047 48.945 21.6247 48.341C21.4067 46.685 21.4197 45.006 21.2247 43.348C21.0597 41.955 20.8397 40.26 19.8247 39.198C18.7025 38.2258 17.0281 38.2551 15.9407 39.266C14.6497 40.352 14.6407 42.236 14.8777 43.766C15.2944 45.6555 15.8701 47.5065 16.5987 49.299C17.119 50.7538 17.3182 52.3039 17.1827 53.843C16.9328 55.6086 16.1507 57.2561 14.9407 58.566C14.6807 58.866 15.1157 59.304 15.3787 59.004" fill="#003849"/>
<path fill-rule="evenodd" clip-rule="evenodd" d="M5.54291 30.005C5.87891 30.342 6.18591 30.705 6.5509 31.014C6.61035 31.0701 6.68823 31.1025 6.76996 31.105C6.85193 31.1039 6.93036 31.0713 6.98895 31.014C7.10754 30.8921 7.10754 30.6979 6.98895 30.576C6.6239 30.27 6.31592 29.904 5.98096 29.567C5.85999 29.4464 5.66412 29.4467 5.54352 29.5676C5.42285 29.6885 5.42303 29.8843 5.54395 30.005" fill="#003849"/>
<path fill-rule="evenodd" clip-rule="evenodd" d="M10.9003 33.161L10.2072 33.854C10.15 33.9126 10.1174 33.991 10.1162 34.073C10.1162 34.2436 10.2546 34.382 10.4252 34.382C10.5068 34.3802 10.5846 34.3477 10.6432 34.291L11.3372 33.598C11.3942 33.5392 11.4263 33.4608 11.4272 33.379C11.4275 33.297 11.395 33.2182 11.337 33.1602C11.2791 33.1022 11.2003 33.0697 11.1182 33.07C11.0364 33.0717 10.9582 33.1042 10.8992 33.161" fill="#003849"/>
<path fill-rule="evenodd" clip-rule="evenodd" d="M3.90368 36.8793C4.03064 37.0049 4.15686 37.1316 4.28241 37.2592C4.3413 37.3164 4.41989 37.3487 4.50183 37.3495C4.54324 37.3514 4.58433 37.3424 4.62109 37.3234C4.65937 37.3108 4.6938 37.2887 4.72132 37.2592C4.77929 37.2009 4.81201 37.122 4.8125 37.0397C4.81097 36.9576 4.77844 36.8791 4.72132 36.8202L4.34253 36.4402C4.28351 36.3833 4.20505 36.3511 4.1231 36.35C4.08176 36.348 4.04067 36.357 4.00391 36.3761C3.96569 36.3888 3.93126 36.4108 3.90368 36.4402C3.84577 36.4987 3.81305 36.5775 3.8125 36.6598C3.81409 36.7418 3.84669 36.8203 3.90368 36.8793Z" fill="#003849"/>
<path fill-rule="evenodd" clip-rule="evenodd" d="M5.68341 43.059L5.65039 43.103L5.69836 43.041C5.53839 43.2482 5.35254 43.434 5.14539 43.594L5.20441 43.549L5.1604 43.583C5.12531 43.6022 5.0954 43.6296 5.07336 43.663C5.04663 43.6929 5.02771 43.729 5.01837 43.768C4.99713 43.8483 5.00824 43.9338 5.04938 44.006C5.09021 44.0756 5.15656 44.1265 5.23438 44.148C5.31458 44.1712 5.40082 44.16 5.47241 44.117C5.75934 43.9128 6.01013 43.662 6.21436 43.375C6.25616 43.303 6.26733 43.2173 6.24536 43.137C6.224 43.0587 6.17358 42.9914 6.10437 42.949C6.03235 42.9075 5.94666 42.8963 5.86639 42.918L5.79236 42.949C5.74664 42.9761 5.70843 43.0143 5.6814 43.06" fill="#003849"/>
<path fill-rule="evenodd" clip-rule="evenodd" d="M6.58038 50.905H8.47241C8.64264 50.904 8.78033 50.6805 8.78033 50.405C8.78033 50.1295 8.64264 49.906 8.47241 49.905H6.58038C6.41016 49.906 6.27246 50.1295 6.27246 50.405C6.27246 50.6805 6.41016 50.904 6.58038 50.905Z" fill="#003849"/>
<path fill-rule="evenodd" clip-rule="evenodd" d="M17.7691 43.687C18.0468 43.3764 18.3416 43.0816 18.6521 42.804C18.7102 42.7459 18.7429 42.6671 18.7431 42.585C18.7424 42.5029 18.7097 42.4244 18.6521 42.366C18.5939 42.308 18.5153 42.2753 18.4331 42.275C18.3519 42.2796 18.2747 42.3117 18.2141 42.366C17.9038 42.6439 17.609 42.9387 17.3311 43.249C17.2101 43.3697 17.21 43.5655 17.3306 43.6865C17.4513 43.8074 17.6472 43.8077 17.7681 43.687" fill="#003849"/>
<path fill-rule="evenodd" clip-rule="evenodd" d="M18.0263 48.4C18.4177 48.5856 18.8217 48.7433 19.2353 48.872C19.3997 48.9162 19.5692 48.8199 19.6153 48.656C19.6567 48.4919 19.5615 48.3244 19.3994 48.276C19.2133 48.214 19.0263 48.151 18.8423 48.083L18.7113 48.033L18.6303 48C18.6123 47.993 18.5473 47.971 18.6234 48C18.5261 47.9617 18.4313 47.9176 18.3393 47.868C18.1919 47.7818 18.0025 47.8315 17.9163 47.979C17.8301 48.1264 17.8799 48.3158 18.0273 48.402" fill="#003849"/>
<path fill-rule="evenodd" clip-rule="evenodd" d="M19.4291 55.48C19.2945 55.749 19.1841 56.029 19.0495 56.299C19.0096 56.3717 18.9986 56.4566 19.0185 56.537C19.0407 56.6145 19.0916 56.6806 19.161 56.722C19.2336 56.7657 19.3209 56.7783 19.403 56.757C19.4815 56.7365 19.5485 56.6853 19.5887 56.615C19.7232 56.345 19.8336 56.065 19.9682 55.796C20.0079 55.7233 20.019 55.6384 19.9993 55.558C19.9769 55.4806 19.9259 55.4145 19.8567 55.373C19.7844 55.3315 19.6984 55.3203 19.6178 55.342C19.5395 55.3632 19.4728 55.4142 19.4321 55.484" fill="#003849"/>
<path fill-rule="evenodd" clip-rule="evenodd" d="M25.6649 55.2831C25.9989 55.403 26.3469 55.4812 26.6739 55.6215C26.7542 55.645 26.8399 55.633 26.9119 55.5883C26.9827 55.544 27.0343 55.4714 27.0551 55.3864C27.0759 55.3015 27.0643 55.2111 27.0229 55.1353C26.9789 55.0638 26.9137 55.0103 26.8379 54.9832C26.5109 54.8429 26.1629 54.769 25.8299 54.6448C25.6652 54.5974 25.4955 54.7005 25.4489 54.8761C25.4081 55.0517 25.5031 55.2308 25.6649 55.2831" fill="#003849"/>
<path fill-rule="evenodd" clip-rule="evenodd" d="M32.9053 43.312C32.4818 43.7952 32.1552 44.3554 31.9433 44.962C31.8992 45.1264 31.9954 45.2958 32.1594 45.342C32.3236 45.3827 32.4909 45.2872 32.5393 45.125C32.5613 45.059 32.5853 44.992 32.6103 44.925L32.6303 44.876C32.6623 44.798 32.6143 44.91 32.6303 44.866L32.6733 44.771C32.7333 44.641 32.8013 44.515 32.8733 44.392C32.9453 44.269 33.0193 44.159 33.0993 44.047L33.1603 43.964L33.1833 43.934C33.1613 43.963 33.1953 43.919 33.1993 43.915C33.2443 43.858 33.2903 43.802 33.3373 43.747C33.4583 43.6263 33.4585 43.4305 33.3378 43.3095C33.2172 43.1886 33.0212 43.1883 32.9003 43.309" fill="#003849"/>
<path fill-rule="evenodd" clip-rule="evenodd" d="M29.8889 39.3769C30.1769 39.4956 30.4716 39.5918 30.7709 39.6651C30.9366 39.7169 31.1076 39.6053 31.1529 39.4158C31.1982 39.2263 31.1006 39.0306 30.9349 38.9788C30.6356 38.9055 30.3409 38.8092 30.0529 38.6906C29.9727 38.6651 29.8868 38.6779 29.8149 38.7261C29.7459 38.7736 29.6952 38.8492 29.6729 38.9377C29.6512 39.0295 29.6624 39.1275 29.7039 39.2099C29.748 39.2861 29.8131 39.3433 29.8889 39.3723" fill="#003849"/>
<path fill-rule="evenodd" clip-rule="evenodd" d="M30.3425 31.028C30.2104 31.4209 30.1134 31.8221 30.0525 32.228C30.0303 32.3086 30.0435 32.3934 30.0893 32.466C30.1614 32.5735 30.3007 32.6329 30.4427 32.6168C30.5848 32.6006 30.7018 32.512 30.7396 32.392C30.8009 31.9861 30.8979 31.585 31.0297 31.192C31.0805 31.0276 30.9697 30.8582 30.7811 30.812C30.5922 30.7707 30.3994 30.8659 30.3437 31.028" fill="#003849"/>
<path fill-rule="evenodd" clip-rule="evenodd" d="M23.1955 28.726C23.5603 28.9597 23.9394 29.1705 24.3304 29.357C24.4779 29.4431 24.6673 29.3935 24.7535 29.246C24.8396 29.0985 24.7899 28.9092 24.6425 28.823C24.2512 28.6369 23.8721 28.4261 23.5074 28.192C23.3598 28.1074 23.1716 28.1568 23.0845 28.303C23.0027 28.451 23.0516 28.6372 23.1955 28.726Z" fill="#003849"/>
<path fill-rule="evenodd" clip-rule="evenodd" d="M63.4377 88.158C61.7448 86.3098 59.3705 85.233 56.8647 85.177C54.3306 85.1757 52.0386 86.6822 51.0347 89.009C48.8347 93.558 49.8297 100.134 53.9237 103.309C57.8077 106.324 63.4407 105.954 67.7987 104.267C70.303 103.32 72.4178 101.562 73.8057 99.272C75.2429 96.9943 75.8569 94.2932 75.5457 91.618C75.0995 88.8278 73.0931 86.5406 70.3847 85.735C67.7457 84.955 64.5436 85.688 63.0746 88.156C63.0027 88.302 63.0558 88.4787 63.1963 88.5608C63.3368 88.6429 63.5169 88.6024 63.6087 88.468C64.8797 86.333 67.6087 85.683 69.9087 86.247C72.2506 86.8251 74.1036 88.6131 74.7647 90.933C75.2924 93.3483 74.9376 95.8727 73.7647 98.049C72.6868 100.271 70.9095 102.078 68.7057 103.192C64.8837 105.119 59.6057 105.735 55.7057 103.717C51.3307 101.455 49.7817 95.917 50.8617 91.341C51.4897 88.68 53.1747 86.164 56.0807 85.831C58.6905 85.6245 61.2477 86.6447 62.9987 88.591C63.2677 88.885 63.7037 88.447 63.4367 88.153" fill="#003849"/>
<path fill-rule="evenodd" clip-rule="evenodd" d="M63.5358 88.011C63.7117 85.175 63.8118 80.705 67.2698 79.9C67.6567 79.809 67.4938 79.214 67.1057 79.3C63.3168 80.182 63.1138 84.87 62.9177 88.007C62.8928 88.407 63.5107 88.407 63.5358 88.007" fill="#003849"/>
<path fill-rule="evenodd" clip-rule="evenodd" d="M63.8866 83.95C63.9542 83.095 63.6777 82.2484 63.1187 81.598C62.6482 80.8697 61.9211 80.345 61.0816 80.128C60.6602 80.0818 60.238 80.2083 59.9114 80.4787C59.5848 80.7491 59.3818 81.1403 59.3486 81.563C59.3563 82.5133 59.9008 83.3776 60.7546 83.795C61.6135 84.4301 62.7214 84.6235 63.7446 84.317C63.8908 84.2299 63.9402 84.0417 63.8557 83.894C63.7668 83.7501 63.5807 83.7012 63.4326 83.783C63.3113 83.8245 63.1854 83.8514 63.0576 83.863C62.8906 83.8725 62.723 83.8644 62.5576 83.839C62.1526 83.7713 61.761 83.6393 61.3976 83.448C60.7866 83.131 60.0526 82.576 59.9636 81.88C59.942 81.5611 60.0464 81.2465 60.2546 81.004C60.3348 80.9045 60.4377 80.8256 60.5546 80.774C60.6595 80.729 60.7742 80.7118 60.8876 80.724C60.9046 80.724 60.9876 80.733 60.9656 80.73L61.0457 80.746C61.1234 80.7644 61.1999 80.7877 61.2747 80.816C61.4143 80.876 61.5482 80.9486 61.6746 81.033C61.9752 81.2379 62.2447 81.4851 62.4746 81.767C62.7393 82.0805 62.9563 82.4312 63.1187 82.808C63.1906 82.9847 63.2455 83.1679 63.2827 83.355C63.2973 83.4294 63.3047 83.5051 63.3046 83.581C63.3046 83.623 63.3046 83.664 63.3046 83.705C63.3046 83.72 63.3046 83.735 63.3046 83.751C63.2976 83.851 63.3156 83.693 63.3046 83.787C63.2644 83.9509 63.3592 84.1177 63.5206 84.167C63.685 84.2106 63.854 84.1145 63.9006 83.951" fill="#003849"/>
<path fill-rule="evenodd" clip-rule="evenodd" d="M60.8092 81.954C61.5617 82.7868 62.3997 83.5383 63.3092 84.196C63.4567 84.2822 63.6461 84.2325 63.7322 84.085C63.8184 83.9375 63.7687 83.7482 63.6212 83.662C62.7567 83.0321 61.9609 82.3128 61.2472 81.516C61.1249 81.4037 60.9358 81.4077 60.8184 81.5252C60.7009 81.6426 60.6969 81.8317 60.8092 81.954" fill="#003849"/>
<path fill-rule="evenodd" clip-rule="evenodd" d="M55.949 87.713C55.0982 87.9939 54.3614 88.543 53.849 89.278C53.3757 90.0307 53.0825 90.8825 52.9921 91.767C52.9534 91.9307 53.0476 92.0965 53.208 92.147C53.3727 92.1912 53.5424 92.095 53.5891 91.931C53.6678 91.1313 53.9214 90.3587 54.332 89.668C54.7581 89.0285 55.3856 88.5498 56.1151 88.308C56.488 88.177 56.328 87.579 55.9511 87.708" fill="#003849"/>
<path fill-rule="evenodd" clip-rule="evenodd" d="M245.793 104.242C247.898 110.461 250.026 116.673 252.177 122.877C254.151 128.577 256.135 134.277 258.185 139.949C258.871 141.849 259.552 143.749 260.301 145.622C260.329 145.713 260.396 145.786 260.484 145.822C260.572 145.858 260.672 145.852 260.755 145.807C264.289 144.222 267.976 142.966 271.619 141.66C276.262 139.996 280.912 138.346 285.505 136.546C287.995 135.57 290.469 134.546 292.905 133.446C293.026 133.375 293.084 133.232 293.047 133.097C289.785 123.031 286.495 112.987 282.579 103.153C281.318 99.988 280.018 96.838 278.704 93.696C278.655 93.5342 278.488 93.4392 278.324 93.48C268.586 96.308 258.955 99.48 249.356 102.746C248.243 103.124 247.133 103.515 246.012 103.866C245.634 103.985 245.795 104.582 246.177 104.466C248.8 103.643 251.39 102.707 253.994 101.829C258.845 100.195 263.711 98.6087 268.594 97.07C271.883 96.04 275.183 95.0433 278.494 94.08L278.113 93.864C282.154 103.527 285.886 113.273 289.177 123.218C290.284 126.563 291.377 129.912 292.456 133.266L292.598 132.917C283.887 136.881 274.748 139.786 265.798 143.135C263.998 143.808 262.205 144.497 260.453 145.282L260.908 145.467C259.279 141.393 257.863 137.228 256.408 133.092C254.2 126.829 252.023 120.556 249.876 114.273C248.712 110.88 247.555 107.484 246.404 104.087C246.277 103.712 245.679 103.873 245.804 104.251" fill="#003849"/>
<path fill-rule="evenodd" clip-rule="evenodd" d="M251.028 102.48C252.664 107.343 254.316 112.2 255.984 117.053C258.05 123.104 260.123 129.154 262.203 135.201C263.136 137.906 264.069 140.611 265.003 143.315C265.133 143.689 265.729 143.528 265.603 143.151C263.771 137.858 261.948 132.561 260.135 127.262C258.105 121.337 256.08 115.411 254.06 109.484C253.247 107.096 252.437 104.707 251.631 102.317C251.504 101.942 250.907 102.102 251.031 102.481" fill="#003849"/>
<path fill-rule="evenodd" clip-rule="evenodd" d="M267.724 109.154C264.287 110.354 263.258 110.589 261.28 112.506C260.229 113.557 260.229 115.288 261.96 115.412C263.876 115.536 266.597 114.299 268.39 113.619C270.306 112.877 272.161 112.012 273.954 111.146C275.005 110.59 276.241 110.033 276.18 108.735C276.056 106.509 272.223 107.251 267.725 109.154" fill="#003849"/>
<path fill-rule="evenodd" clip-rule="evenodd" d="M264.537 122.629C269.374 121.012 274.128 119.163 278.88 117.312C279.246 117.169 279.087 116.571 278.715 116.712C273.964 118.563 269.21 120.412 264.372 122.029C263.997 122.155 264.157 122.752 264.537 122.629Z" fill="#003849"/>
<path fill-rule="evenodd" clip-rule="evenodd" d="M263.232 119.873C268.069 118.256 272.823 116.407 277.575 114.556C277.941 114.413 277.782 113.815 277.41 113.956C272.659 115.807 267.905 117.656 263.067 119.273C262.692 119.399 262.852 119.996 263.232 119.873Z" fill="#003849"/>
<path fill-rule="evenodd" clip-rule="evenodd" d="M283.152 38.526C280.711 41.104 280.527 45.363 282.026 48.459C284.166 52.315 288.761 54.0841 292.935 52.659C296.568 51.2195 299.126 47.9116 299.605 44.033C299.809 40.1559 297.518 36.5805 293.91 35.146C292.141 34.367 290.16 34.2104 288.291 34.702C286.168 35.3628 284.336 36.7329 283.103 38.583C282.871 38.906 283.403 39.216 283.637 38.895C285.72 35.995 289.068 34.332 292.621 35.338C296.046 36.2636 298.569 39.1716 299.003 42.693C299.093 46.184 297.304 49.4553 294.317 51.264C292.486 52.4782 290.226 52.8611 288.097 52.318C286.146 51.8604 284.407 50.7571 283.162 49.187C281.126 46.296 281.09 41.604 283.586 38.967C283.86 38.678 283.423 38.24 283.149 38.529" fill="#003849"/>
<path fill-rule="evenodd" clip-rule="evenodd" d="M285.365 40.215C283.28 42.362 283.575 46.807 285.875 48.645C287.975 50.245 290.504 50.881 292.946 49.479C296.518 47.435 298.356 42.492 294.718 39.138C293.427 37.8288 291.606 37.1866 289.779 37.397C287.953 37.6073 286.325 38.6467 285.365 40.215" fill="#5596A5"/>
<path fill-rule="evenodd" clip-rule="evenodd" d="M286.752 46.166C287.038 44.966 287.325 43.7633 287.612 42.558C287.705 42.171 287.112 42.007 287.012 42.394C286.726 43.594 286.439 44.7967 286.152 46.002C286.06 46.389 286.652 46.554 286.752 46.166Z" fill="#003849"/>
<path fill-rule="evenodd" clip-rule="evenodd" d="M289.614 47.557C290.251 44.887 290.928 42.225 291.565 39.557C291.658 39.17 291.065 39.006 290.964 39.393C290.328 42.064 289.651 44.725 289.014 47.393C288.922 47.78 289.514 47.944 289.614 47.557Z" fill="#003849"/>
<path fill-rule="evenodd" clip-rule="evenodd" d="M293.192 44.997C293.365 44.27 293.497 43.533 293.712 42.816C293.757 42.6503 293.66 42.4793 293.494 42.434C293.328 42.3887 293.157 42.4863 293.112 42.652C292.897 43.369 292.765 44.106 292.592 44.833C292.547 44.9987 292.644 45.1697 292.81 45.215C292.976 45.2603 293.147 45.1627 293.192 44.997Z" fill="#003849"/>
<path fill-rule="evenodd" clip-rule="evenodd" d="M297.482 48.879C300.375 49.986 303.304 51.006 306.243 51.979C307.838 52.6245 309.541 52.9638 311.263 52.979C312.162 52.929 314.104 52.637 314.409 51.593C314.808 50.219 312.525 49.27 311.615 48.862C309.397 47.9185 307.106 47.1567 304.765 46.584C302.897 46.0423 300.999 45.6136 299.081 45.3C298.692 45.246 298.523 45.842 298.915 45.9C300.351 46.1326 301.774 46.4397 303.178 46.82C305.376 47.3433 307.544 47.9856 309.672 48.744C310.602 49.0686 311.505 49.4655 312.373 49.931C312.841 50.192 313.573 50.566 313.779 51.106C314.1 51.935 312.219 52.244 311.672 52.324C309.993 52.4313 308.313 52.1497 306.762 51.501C303.702 50.494 300.652 49.432 297.645 48.28C297.273 48.138 297.111 48.735 297.48 48.88" fill="#003849"/>
<path fill-rule="evenodd" clip-rule="evenodd" d="M109.033 107.782C106.333 99.596 94.9991 99.105 88.55 102.757C87.7669 103.195 87.035 103.72 86.368 104.32C86.0327 104.623 85.7198 104.95 85.4321 105.299C85.2 105.569 85.0859 105.92 85.1151 106.275C85.045 108.028 84.989 109.781 84.936 111.534C84.7934 116.264 84.6744 120.994 84.579 125.725C84.497 129.751 84.361 133.79 84.45 137.817C84.4523 137.927 84.512 138.027 84.6071 138.082C84.7023 138.137 84.8192 138.137 84.915 138.084C90.558 135.377 97.497 133.015 103.715 135.084C105.538 135.7 107.203 136.71 108.593 138.04C108.693 138.138 108.846 138.157 108.968 138.088C111.852 135.827 115.382 134.547 119.045 134.433C122.182 134.506 125.265 135.257 128.085 136.633C129.668 137.349 131.199 138.172 132.715 139.019C132.811 139.073 132.928 139.072 133.023 139.018C133.119 138.963 133.178 138.862 133.18 138.752V104.978C133.18 104.61 133.28 104.149 133.027 103.865C132.562 103.443 132.04 103.089 131.477 102.813C127.456 100.506 122.738 99.728 118.189 100.622C114.209 101.37 109.64 103.58 108.433 107.783C108.388 107.949 108.485 108.12 108.651 108.165C108.817 108.21 108.988 108.113 109.033 107.947C109.903 104.918 112.775 102.978 115.601 101.962C119.15 100.715 122.989 100.546 126.633 101.478C128.837 102.035 130.907 103.028 132.72 104.4L132.567 104.133V138.758L133.032 138.491C127.398 135.34 121.067 132.515 114.532 134.506C112.416 135.182 110.431 136.214 108.662 137.558L109.037 137.606C106.592 135.32 103.427 133.96 100.086 133.758C96.6396 133.607 93.1976 134.144 89.9611 135.338C88.1331 135.967 86.3445 136.706 84.6051 137.55L85.071 137.817C84.998 134.56 85.095 131.295 85.155 128.039C85.2397 123.444 85.347 118.85 85.4771 114.256C85.5317 112.305 85.5917 110.355 85.657 108.406C85.6824 107.667 85.7097 106.928 85.7391 106.188C85.7681 105.488 86.7191 104.808 87.246 104.38C90.4138 102.034 94.3263 100.918 98.2551 101.242C102.598 101.499 106.996 103.569 108.439 107.942C108.563 108.318 109.16 108.157 109.039 107.778" fill="#003849"/>
<path fill-rule="evenodd" clip-rule="evenodd" d="M108.425 107.864C108.425 116.057 108.495 124.251 108.528 132.444C108.533 134.065 108.538 135.685 108.542 137.306C108.543 137.476 108.74 137.614 108.983 137.614C109.227 137.614 109.424 137.476 109.425 137.306C109.425 129.113 109.355 120.92 109.322 112.726C109.315 111.106 109.31 109.486 109.308 107.865C109.307 107.695 109.109 107.557 108.866 107.557C108.623 107.557 108.426 107.695 108.425 107.865" fill="#003849"/>
<path fill-rule="evenodd" clip-rule="evenodd" d="M87.8979 109.43C88.3685 108.786 89.1525 108.449 89.9438 108.55C90.5779 108.711 91.1599 109.056 91.7839 109.25C93.2839 109.72 94.3379 109.168 95.6149 108.431C96.3016 107.978 97.1072 107.739 97.9299 107.744C98.8856 107.91 99.8036 108.247 100.64 108.739C101.345 109.158 102.162 109.349 102.979 109.285C103.818 109.127 104.459 108.479 105.279 108.263C105.445 108.218 105.542 108.047 105.497 107.881C105.452 107.715 105.281 107.618 105.115 107.663C104.252 107.889 103.505 108.678 102.601 108.702C101.585 108.559 100.613 108.197 99.7509 107.642C98.3281 106.929 96.6341 107.025 95.3009 107.894C94.7177 108.307 94.067 108.616 93.3779 108.806C92.5344 108.863 91.6922 108.676 90.9519 108.268C90.4565 108.003 89.9017 107.869 89.3399 107.878C88.6071 108.027 87.9453 108.417 87.4599 108.986C87.1749 109.264 87.6119 109.701 87.8979 109.424" fill="#003849"/>
<path fill-rule="evenodd" clip-rule="evenodd" d="M87.8973 113.576C88.3682 112.932 89.152 112.595 89.9432 112.697C90.5773 112.858 91.1593 113.203 91.7833 113.397C93.2833 113.867 94.3373 113.315 95.6143 112.577C96.301 112.124 97.1067 111.885 97.9293 111.891C98.885 112.057 99.803 112.394 100.639 112.885C101.344 113.303 102.161 113.494 102.978 113.431C103.817 113.275 104.458 112.625 105.278 112.409C105.444 112.364 105.542 112.193 105.496 112.027C105.451 111.861 105.28 111.764 105.114 111.809C104.251 112.036 103.503 112.824 102.6 112.848C101.585 112.705 100.612 112.343 99.7502 111.788C98.3275 111.075 96.6335 111.171 95.3003 112.04C94.7173 112.454 94.0665 112.762 93.3773 112.952C92.5338 113.009 91.6917 112.823 90.9513 112.415C90.4559 112.15 89.9011 112.016 89.3393 112.025C88.6066 112.174 87.9447 112.563 87.4593 113.132C87.1733 113.41 87.6113 113.847 87.8973 113.57" fill="#003849"/>
<path fill-rule="evenodd" clip-rule="evenodd" d="M87.8973 117.722C88.368 117.078 89.152 116.741 89.9432 116.843C90.5773 117.004 91.1593 117.349 91.7833 117.543C93.2833 118.013 94.3373 117.461 95.6143 116.724C96.3009 116.271 97.1066 116.032 97.9293 116.037C98.885 116.203 99.803 116.54 100.639 117.032C101.344 117.45 102.161 117.641 102.978 117.578C103.817 117.419 104.458 116.772 105.278 116.556C105.444 116.511 105.542 116.34 105.496 116.174C105.451 116.008 105.28 115.911 105.114 115.956C104.251 116.183 103.504 116.971 102.6 116.995C101.585 116.852 100.612 116.49 99.7502 115.935C98.3276 115.222 96.6334 115.318 95.3003 116.187C94.717 116.6 94.0663 116.909 93.3773 117.099C92.5338 117.156 91.6917 116.969 90.9513 116.561C90.4559 116.296 89.9011 116.162 89.3393 116.171C88.6066 116.32 87.9447 116.709 87.4593 117.278C87.1733 117.556 87.6113 117.993 87.8973 117.716" fill="#003849"/>
<path fill-rule="evenodd" clip-rule="evenodd" d="M87.8979 121.87C88.3685 121.226 89.1525 120.889 89.9438 120.99C90.5779 121.152 91.1599 121.496 91.7839 121.69C93.2839 122.16 94.3379 121.608 95.6149 120.87C96.3016 120.417 97.1072 120.178 97.9299 120.183C98.8856 120.349 99.8036 120.686 100.64 121.178C101.345 121.596 102.162 121.787 102.979 121.724C103.818 121.568 104.46 120.918 105.279 120.702C105.445 120.657 105.542 120.486 105.497 120.32C105.452 120.154 105.281 120.057 105.115 120.102C104.253 120.329 103.504 121.118 102.601 121.141C101.585 120.998 100.613 120.636 99.7509 120.081C98.3281 119.368 96.6341 119.464 95.3009 120.333C94.7177 120.746 94.067 121.055 93.3779 121.245C92.5343 121.302 91.6921 121.116 90.9519 120.707C90.4565 120.442 89.9017 120.308 89.3399 120.317C88.6071 120.466 87.9453 120.856 87.4599 121.425C87.1749 121.703 87.6119 122.14 87.8979 121.863" fill="#003849"/>
<path fill-rule="evenodd" clip-rule="evenodd" d="M87.8973 126.016C88.368 125.372 89.152 125.035 89.9432 125.137C90.5773 125.298 91.1593 125.643 91.7833 125.837C93.2833 126.307 94.3373 125.755 95.6143 125.017C96.301 124.564 97.1067 124.325 97.9293 124.331C98.8851 124.497 99.8031 124.834 100.639 125.326C101.344 125.744 102.161 125.934 102.978 125.872C103.817 125.716 104.458 125.066 105.278 124.85C105.444 124.805 105.542 124.634 105.496 124.468C105.451 124.302 105.28 124.205 105.114 124.25C104.251 124.477 103.504 125.265 102.6 125.289C101.585 125.146 100.612 124.784 99.7502 124.229C98.3276 123.516 96.6334 123.612 95.3003 124.481C94.7173 124.895 94.0665 125.203 93.3773 125.393C92.5338 125.45 91.6917 125.264 90.9513 124.856C90.4559 124.591 89.9011 124.457 89.3393 124.466C88.6066 124.615 87.9447 125.004 87.4593 125.573C87.1733 125.851 87.6113 126.288 87.8973 126.011" fill="#003849"/>
<path fill-rule="evenodd" clip-rule="evenodd" d="M87.8979 130.163C88.3685 129.519 89.1525 129.182 89.9438 129.283C90.5779 129.444 91.1599 129.789 91.7839 129.983C93.2839 130.453 94.3379 129.901 95.6149 129.164C96.3016 128.711 97.1072 128.472 97.9299 128.477C98.8856 128.643 99.8036 128.98 100.64 129.472C101.345 129.891 102.162 130.082 102.979 130.018C103.818 129.86 104.459 129.212 105.279 128.996C105.445 128.951 105.542 128.78 105.497 128.614C105.452 128.448 105.281 128.351 105.115 128.396C104.252 128.623 103.505 129.411 102.601 129.435C101.585 129.292 100.613 128.93 99.7509 128.375C98.3282 127.662 96.634 127.758 95.3009 128.627C94.7177 129.04 94.067 129.349 93.3779 129.539C92.5344 129.596 91.6922 129.409 90.9519 129.001C90.4565 128.736 89.9017 128.602 89.3399 128.611C88.6071 128.76 87.9453 129.15 87.4599 129.719C87.1749 129.997 87.6119 130.434 87.8979 130.157" fill="#003849"/>
<path fill-rule="evenodd" clip-rule="evenodd" d="M111.615 109.43C112.086 108.786 112.87 108.449 113.661 108.55C114.295 108.711 114.877 109.056 115.502 109.25C117.002 109.72 118.056 109.168 119.332 108.431C120.019 107.978 120.824 107.739 121.647 107.744C122.603 107.91 123.521 108.247 124.357 108.739C125.062 109.157 125.878 109.348 126.695 109.285C127.534 109.129 128.176 108.479 128.995 108.263C129.161 108.218 129.258 108.047 129.213 107.881C129.168 107.715 128.997 107.618 128.831 107.663C127.968 107.889 127.221 108.678 126.317 108.702C125.302 108.559 124.329 108.197 123.467 107.642C122.044 106.929 120.35 107.025 119.017 107.894C118.434 108.307 117.783 108.616 117.094 108.806C116.251 108.863 115.408 108.676 114.668 108.268C114.173 108.003 113.618 107.869 113.056 107.878C112.323 108.027 111.661 108.417 111.175 108.986C110.889 109.264 111.327 109.701 111.613 109.424" fill="#003849"/>
<path fill-rule="evenodd" clip-rule="evenodd" d="M111.615 113.576C112.086 112.932 112.87 112.595 113.661 112.697C114.295 112.858 114.877 113.203 115.502 113.397C117.002 113.867 118.056 113.315 119.332 112.577C120.019 112.124 120.825 111.885 121.647 111.891C122.603 112.057 123.521 112.394 124.357 112.885C125.062 113.303 125.878 113.494 126.695 113.431C127.534 113.275 128.176 112.625 128.995 112.409C129.161 112.364 129.258 112.193 129.213 112.027C129.168 111.861 128.997 111.764 128.831 111.809C127.968 112.036 127.22 112.824 126.317 112.848C125.302 112.705 124.329 112.343 123.467 111.788C122.044 111.075 120.35 111.171 119.017 112.04C118.434 112.453 117.783 112.762 117.094 112.952C116.251 113.009 115.409 112.823 114.668 112.415C114.173 112.15 113.618 112.016 113.056 112.025C112.323 112.173 111.661 112.563 111.175 113.132C110.889 113.41 111.327 113.847 111.613 113.57" fill="#003849"/>
<path fill-rule="evenodd" clip-rule="evenodd" d="M111.615 117.722C112.086 117.078 112.87 116.741 113.661 116.843C114.295 117.004 114.877 117.349 115.502 117.543C117.002 118.013 118.056 117.461 119.332 116.724C120.019 116.271 120.824 116.032 121.647 116.037C122.603 116.203 123.521 116.54 124.357 117.032C125.062 117.45 125.878 117.64 126.695 117.578C127.534 117.421 128.176 116.772 128.995 116.556C129.161 116.511 129.258 116.34 129.213 116.174C129.168 116.008 128.997 115.911 128.831 115.956C127.968 116.183 127.221 116.971 126.317 116.995C125.302 116.852 124.329 116.49 123.467 115.935C122.044 115.222 120.35 115.318 119.017 116.187C118.434 116.6 117.783 116.909 117.094 117.099C116.251 117.156 115.409 116.969 114.668 116.561C114.173 116.296 113.618 116.162 113.056 116.171C112.323 116.319 111.661 116.709 111.175 117.278C110.889 117.556 111.327 117.993 111.613 117.716" fill="#003849"/>
<path fill-rule="evenodd" clip-rule="evenodd" d="M111.615 121.87C112.086 121.226 112.87 120.889 113.661 120.99C114.295 121.152 114.877 121.496 115.502 121.69C117.002 122.16 118.056 121.608 119.332 120.87C120.019 120.417 120.824 120.178 121.647 120.183C122.603 120.349 123.521 120.686 124.357 121.178C125.062 121.596 125.878 121.787 126.695 121.724C127.534 121.568 128.176 120.918 128.995 120.702C129.161 120.657 129.258 120.486 129.213 120.32C129.168 120.154 128.997 120.057 128.831 120.102C127.969 120.329 127.22 121.118 126.317 121.141C125.302 120.998 124.329 120.636 123.467 120.081C122.044 119.368 120.35 119.464 119.017 120.333C118.434 120.746 117.783 121.055 117.094 121.245C116.251 121.302 115.408 121.116 114.668 120.707C114.173 120.442 113.618 120.308 113.056 120.317C112.323 120.466 111.661 120.856 111.175 121.425C110.889 121.703 111.327 122.14 111.613 121.863" fill="#003849"/>
<path fill-rule="evenodd" clip-rule="evenodd" d="M111.615 126.016C112.086 125.372 112.87 125.035 113.661 125.137C114.295 125.298 114.877 125.643 115.502 125.837C117.002 126.307 118.056 125.755 119.332 125.017C120.019 124.564 120.825 124.325 121.647 124.331C122.603 124.497 123.521 124.834 124.357 125.326C125.062 125.744 125.878 125.934 126.695 125.872C127.534 125.716 128.176 125.066 128.995 124.85C129.161 124.805 129.258 124.634 129.213 124.468C129.168 124.302 128.997 124.205 128.831 124.25C127.968 124.477 127.22 125.265 126.317 125.289C125.302 125.146 124.329 124.784 123.467 124.229C122.044 123.516 120.35 123.612 119.017 124.481C118.434 124.894 117.783 125.203 117.094 125.393C116.251 125.45 115.409 125.264 114.668 124.856C114.173 124.591 113.618 124.457 113.056 124.466C112.323 124.614 111.661 125.004 111.175 125.573C110.889 125.851 111.327 126.288 111.613 126.011" fill="#003849"/>
<path fill-rule="evenodd" clip-rule="evenodd" d="M111.615 130.163C112.086 129.519 112.87 129.182 113.661 129.283C114.295 129.444 114.877 129.789 115.502 129.983C117.002 130.453 118.056 129.901 119.332 129.164C120.019 128.711 120.824 128.472 121.647 128.477C122.603 128.643 123.521 128.98 124.357 129.472C125.062 129.89 125.878 130.081 126.695 130.018C127.534 129.862 128.176 129.212 128.995 128.996C129.161 128.951 129.258 128.78 129.213 128.614C129.168 128.448 128.997 128.351 128.831 128.396C127.968 128.623 127.221 129.411 126.317 129.435C125.302 129.292 124.329 128.93 123.467 128.375C122.044 127.662 120.35 127.758 119.017 128.627C118.434 129.04 117.783 129.349 117.094 129.539C116.251 129.596 115.408 129.409 114.668 129.001C114.173 128.736 113.618 128.602 113.056 128.611C112.323 128.76 111.661 129.15 111.175 129.719C110.889 129.997 111.327 130.434 111.613 130.157" fill="#003849"/>
<path fill-rule="evenodd" clip-rule="evenodd" d="M294.717 94.737C290.856 88.199 290.335 79.376 294.059 72.655C295.794 69.4226 298.65 66.9356 302.091 65.662C306.405 64.1574 311.141 64.4408 315.245 66.449C317.438 67.5906 319.394 69.1376 321.011 71.008C321.891 72.0077 322.698 73.0691 323.426 74.184C324.383 75.5738 325.232 77.0347 325.967 78.554L326.077 78.131C322.277 80.298 318.369 82.277 314.487 84.287C309.631 86.8003 304.764 89.2953 299.887 91.772C298.02 92.7233 296.153 93.6747 294.287 94.626C293.933 94.808 294.245 95.341 294.599 95.16C298.492 93.168 302.387 91.18 306.285 89.196C311.153 86.705 316.018 84.209 320.854 81.657C322.707 80.679 324.562 79.703 326.382 78.665C326.525 78.5759 326.574 78.3901 326.493 78.242C325.81 76.8332 325.027 75.475 324.151 74.178C323.495 73.1531 322.779 72.1687 322.005 71.23C320.542 69.4245 318.793 67.8707 316.828 66.63C312.809 64.2142 307.997 63.4886 303.445 64.612C299.737 65.5295 296.502 67.7923 294.369 70.961C292.239 74.2159 291.054 77.9984 290.947 81.887C290.736 86.4932 291.857 91.0624 294.176 95.048C294.262 95.1954 294.451 95.245 294.599 95.1589C294.746 95.0728 294.796 94.8834 294.71 94.736" fill="#003849"/>
<path fill-rule="evenodd" clip-rule="evenodd" d="M299.4 87.25C297.078 83.3197 296.929 78.4742 299.006 74.409C300.021 72.5074 301.706 71.0497 303.733 70.318C306.246 69.462 308.997 69.6482 311.372 70.835C314.136 72.4506 316.303 74.9161 317.551 77.864C317.588 77.723 317.625 77.582 317.662 77.441C312.65 80.298 307.434 82.827 302.295 85.446C301.189 86.01 300.083 86.574 298.977 87.138C298.623 87.32 298.935 87.853 299.289 87.672C304.431 85.042 309.589 82.442 314.698 79.748C315.798 79.168 316.898 78.589 317.975 77.974C318.119 77.8852 318.168 77.699 318.086 77.551C316.883 74.8004 314.933 72.4417 312.458 70.742C310.073 69.2715 307.201 68.8106 304.475 69.461C299.769 70.554 297.184 75.087 296.956 79.661C296.814 82.4239 297.478 85.1685 298.867 87.561C298.953 87.7084 299.143 87.758 299.29 87.6719C299.438 87.5858 299.487 87.3965 299.401 87.249" fill="#003849"/>
<path fill-rule="evenodd" clip-rule="evenodd" d="M296.852 90.187C297.302 90.995 297.536 91.905 298.009 92.701C298.095 92.8485 298.285 92.8982 298.432 92.812C298.58 92.7259 298.629 92.5365 298.543 92.389C298.07 91.589 297.836 90.683 297.386 89.875C297.192 89.527 296.658 89.839 296.852 90.187" fill="#003849"/>
<path fill-rule="evenodd" clip-rule="evenodd" d="M303.842 87.773C304.103 88.364 304.405 88.9355 304.747 89.483C304.803 89.5784 304.906 89.6369 305.016 89.6363C305.126 89.6358 305.228 89.5763 305.283 89.4803C305.338 89.3843 305.337 89.2664 305.281 89.171C304.939 88.6234 304.637 88.0519 304.376 87.461C304.29 87.3144 304.101 87.2649 303.953 87.35C303.809 87.4388 303.761 87.6249 303.842 87.773" fill="#003849"/>
<path fill-rule="evenodd" clip-rule="evenodd" d="M310.883 84.102C311.032 84.402 311.203 84.682 311.36 84.974C311.516 85.2439 311.633 85.5349 311.707 85.838C311.752 86.0037 311.923 86.1013 312.089 86.056C312.254 86.0107 312.352 85.8397 312.307 85.674C312.086 85.0135 311.789 84.3812 311.421 83.79C311.334 83.6434 311.145 83.5939 310.998 83.679C310.853 83.7675 310.804 83.954 310.887 84.102" fill="#003849"/>
<path fill-rule="evenodd" clip-rule="evenodd" d="M317.167 80.897C317.173 80.905 317.242 80.997 317.212 80.954L317.285 81.054C317.334 81.1207 317.381 81.1873 317.428 81.254C317.52 81.3873 317.608 81.5243 317.692 81.665C317.866 81.951 318.024 82.245 318.174 82.544C318.261 82.6901 318.449 82.7395 318.597 82.655C318.741 82.5662 318.79 82.38 318.708 82.232C318.404 81.6045 318.035 81.0103 317.608 80.459C317.487 80.3388 317.292 80.3388 317.171 80.459C317.055 80.5819 317.055 80.774 317.171 80.897" fill="#003849"/>
<path fill-rule="evenodd" clip-rule="evenodd" d="M324.37 75.331C323.804 75.64 323.237 75.947 322.66 76.236C322.514 76.3231 322.465 76.5113 322.549 76.659C322.638 76.8024 322.824 76.8512 322.972 76.77C323.548 76.481 324.115 76.17 324.681 75.865C324.828 75.7782 324.877 75.5896 324.792 75.442C324.704 75.2977 324.517 75.2487 324.369 75.331" fill="#003849"/>
<path fill-rule="evenodd" clip-rule="evenodd" d="M319.731 69.697C319.166 70.209 318.556 70.668 317.971 71.155C317.851 71.2762 317.851 71.4718 317.971 71.593C318.094 71.7089 318.286 71.7089 318.408 71.593C318.994 71.106 319.608 70.647 320.168 70.134C320.288 70.0129 320.288 69.8181 320.168 69.697C320.046 69.5806 319.854 69.5806 319.731 69.697" fill="#003849"/>
<path fill-rule="evenodd" clip-rule="evenodd" d="M313.347 65.385C312.987 65.9 312.647 66.43 312.291 66.944C312.207 67.0917 312.256 67.2799 312.402 67.367C312.55 67.4487 312.736 67.3999 312.825 67.256C313.185 66.742 313.525 66.212 313.881 65.697C313.966 65.5494 313.917 65.3608 313.77 65.274C313.622 65.1923 313.436 65.2411 313.347 65.385Z" fill="#003849"/>
<path fill-rule="evenodd" clip-rule="evenodd" d="M305.923 64.654C305.774 65.296 305.569 65.923 305.423 66.565C305.378 66.7307 305.475 66.9017 305.641 66.947C305.807 66.9923 305.978 66.8947 306.023 66.729C306.172 66.087 306.377 65.46 306.523 64.818C306.568 64.6523 306.471 64.4813 306.305 64.436C306.14 64.3907 305.969 64.4883 305.923 64.654Z" fill="#003849"/>
<path fill-rule="evenodd" clip-rule="evenodd" d="M298.007 67.82C298.402 68.263 298.868 68.634 299.264 69.077C299.385 69.1966 299.58 69.1966 299.701 69.077C299.818 68.9545 299.818 68.7615 299.701 68.639C299.301 68.197 298.839 67.825 298.444 67.382C298.323 67.2624 298.128 67.2624 298.007 67.382C297.89 67.5043 297.89 67.6977 298.007 67.82" fill="#003849"/>
<path fill-rule="evenodd" clip-rule="evenodd" d="M293.266 74.488C293.776 74.6676 294.297 74.8189 294.825 74.941C294.932 74.9705 295.047 74.9406 295.126 74.8625C295.205 74.7844 295.236 74.6701 295.208 74.5625C295.18 74.4549 295.097 74.3705 294.99 74.341C294.462 74.2188 293.942 74.0676 293.431 73.888C293.266 73.8443 293.097 73.9403 293.05 74.104C293.008 74.2681 293.104 74.4356 293.266 74.484" fill="#003849"/>
<path fill-rule="evenodd" clip-rule="evenodd" d="M291.436 82.5775C292.153 82.5152 292.868 82.4418 293.58 82.3182C293.744 82.2623 293.841 82.0546 293.796 81.8533C293.747 81.6554 293.58 81.5392 293.416 81.5891C292.766 81.7016 292.097 81.7628 291.437 81.8215C291.326 81.821 291.224 81.893 291.169 82.0101C291.113 82.1273 291.113 82.2718 291.169 82.3889C291.224 82.5061 291.326 82.578 291.437 82.5775" fill="#003849"/>
<path fill-rule="evenodd" clip-rule="evenodd" d="M292.674 89.876C293.231 89.6787 293.776 89.4504 294.307 89.192C294.453 89.1049 294.502 88.9163 294.417 88.769C294.328 88.6251 294.142 88.5763 293.994 88.658C293.867 88.721 293.739 88.783 293.61 88.841L293.428 88.921L293.35 88.955L293.293 88.979C293.033 89.085 292.771 89.185 292.508 89.279C292.342 89.3245 292.245 89.4958 292.29 89.6615C292.336 89.8272 292.507 89.9246 292.673 89.879" fill="#003849"/>
<path fill-rule="evenodd" clip-rule="evenodd" d="M91.4907 79.7C92.4907 75.209 87.9797 70.805 88.1627 66.036C88.3827 61.536 92.1087 59.411 96.2877 60.176C101.17 61.176 105.021 64.837 104.488 70.269C104.116 74.06 100.937 76.115 98.5386 78.569C97.7144 79.3974 97.0353 80.3585 96.5297 81.412" fill="#FFD066"/>
<path fill-rule="evenodd" clip-rule="evenodd" d="M96.1768 81.226C94.8768 80.788 93.5287 80.445 92.2548 79.92C91.3113 79.4704 90.2626 79.2881 89.2228 79.393C88.6378 79.478 87.8548 79.74 87.7558 80.42C87.6248 81.311 88.7318 81.947 89.3668 82.303L89.4408 81.738C88.5678 81.938 87.2057 82.278 86.7978 83.193C86.2978 84.315 87.9138 85.019 88.6818 85.34V84.74C87.8578 85.046 85.9818 85.735 86.5248 86.966C86.7913 87.4333 87.1943 87.8081 87.6797 88.04C88.3577 88.4176 89.0654 88.739 89.7958 89.001C91.2626 89.5924 92.7917 90.0157 94.3538 90.263C95.1788 90.374 96.5018 90.363 96.7427 89.335C96.9838 88.307 95.9557 87.335 95.1778 86.852L95.0218 87.428C96.0148 87.406 97.5447 87.14 97.5137 85.847C97.3292 84.7928 96.6094 83.9105 95.6138 83.518L95.3758 84.083C96.1998 84.283 98.4028 84.742 98.6138 83.404C98.8018 82.204 97.0468 81.488 96.1788 81.222C95.7978 81.105 95.6338 81.702 96.0138 81.822C96.5454 81.9659 97.0458 82.207 97.4898 82.533C97.6898 82.69 98.0428 82.998 98.0068 83.292C97.9068 84.079 95.9138 83.581 95.5408 83.492C95.2138 83.413 94.9758 83.892 95.3028 84.057C96.0545 84.3499 96.6352 84.9647 96.8848 85.732C97.0478 86.7 95.6708 86.801 95.0237 86.815C94.8867 86.8194 94.7685 86.9128 94.7326 87.0453C94.6968 87.1777 94.7516 87.318 94.8677 87.391C95.4068 87.727 96.1338 88.328 96.1558 89.03C96.1818 89.852 94.8948 89.73 94.3848 89.654C93.1846 89.4415 92.0039 89.1305 90.8548 88.724C89.6913 88.4082 88.5857 87.9085 87.5798 87.244C87.3218 87.053 86.9297 86.744 87.1038 86.382C87.3768 85.822 88.3278 85.534 88.8478 85.341C88.9818 85.3028 89.0741 85.1803 89.0741 85.041C89.0741 84.9017 88.9818 84.7793 88.8478 84.741C88.4098 84.558 86.8868 83.962 87.4758 83.273C88.0773 82.755 88.8188 82.4268 89.6068 82.33C89.7248 82.2949 89.8111 82.1936 89.8271 82.0715C89.8431 81.9494 89.7858 81.8294 89.6808 81.765C89.3608 81.585 88.0438 80.906 88.4368 80.365C88.7778 79.891 89.7648 79.941 90.2598 79.986C91.1602 80.1495 92.0364 80.4256 92.8678 80.808C93.9078 81.174 94.9678 81.471 96.0148 81.821C96.3928 81.948 96.5558 81.351 96.1797 81.221" fill="#003849"/>
<path fill-rule="evenodd" clip-rule="evenodd" d="M88.8661 82.227L93.7841 83.894C94.1621 84.022 94.3241 83.425 93.9481 83.294L89.0311 81.625C88.6531 81.497 88.4911 82.093 88.8661 82.225" fill="#003849"/>
<path fill-rule="evenodd" clip-rule="evenodd" d="M90.8796 86.044L94.9385 87.421C95.3166 87.549 95.4786 86.953 95.1036 86.821L91.0446 85.444C90.6666 85.316 90.5046 85.913 90.8806 86.044" fill="#003849"/>
<path fill-rule="evenodd" clip-rule="evenodd" d="M92.7235 80.132C93.5602 79.136 94.1224 77.9389 94.3545 76.659C94.4841 75.5306 94.5336 74.3944 94.5025 73.259C94.6931 71.9513 94.646 70.62 94.3635 69.329C94.2286 68.7576 93.8298 68.2846 93.2895 68.055C92.6363 67.864 91.9308 68.0278 91.4285 68.487C90.3005 69.643 91.4285 71.715 92.5445 72.408C94.8065 73.808 96.4445 71.26 97.3125 69.514L96.7365 69.358C96.6765 70.698 96.6845 72.921 98.0915 73.631C99.3615 74.271 100.724 73.255 101.168 72.085C101.458 71.323 101.469 69.669 100.203 70.016C99.5083 70.3125 98.9194 70.8128 98.5145 71.451C97.8984 72.2725 97.3812 73.1636 96.9735 74.106C96.0164 76.2879 95.3144 78.5731 94.8815 80.916C94.8065 81.305 95.4025 81.471 95.4815 81.08C95.78 79.5338 96.1843 78.0099 96.6915 76.519C97.1941 74.8747 97.9509 73.3193 98.9345 71.909C99.2445 71.497 100.835 69.719 100.734 71.23C100.71 72.288 99.8652 73.1437 98.8075 73.182C97.2365 73.082 97.3015 70.463 97.3505 69.356C97.3476 69.2181 97.2541 69.0985 97.1209 69.0625C96.9877 69.0264 96.8467 69.0824 96.7745 69.2C96.1305 70.5 95.0125 72.751 93.2075 72.051C92.5432 71.7637 92.0267 71.2153 91.7795 70.535C91.5795 70.035 91.4525 69.255 91.9275 68.857C92.3467 68.5186 92.9401 68.501 93.3785 68.814C93.7017 69.1944 93.8907 69.6706 93.9165 70.169C94.0081 71.1872 93.9967 72.2121 93.8825 73.228C93.8275 74.207 93.9515 75.169 93.8095 76.151C93.6434 77.452 93.1142 78.6799 92.2825 79.694C92.0286 79.994 92.4635 80.436 92.7195 80.132" fill="#003849"/>
<path fill-rule="evenodd" clip-rule="evenodd" d="M326.213 20.716C321.704 20.3249 317.444 22.8423 315.613 26.981C313.855 30.9114 314.457 35.4966 317.17 38.84C320.675 42.6512 325.989 44.2301 331.007 42.951C333.396 42.2951 335.427 40.7176 336.654 38.565C337.854 36.3013 338.363 33.7346 338.117 31.184C337.956 28.9155 337.088 26.7546 335.635 25.005C333.796 22.9938 331.358 21.6287 328.683 21.112C327.869 20.9319 327.045 20.7984 326.216 20.712C325.821 20.669 325.824 21.288 326.216 21.33C329.086 21.5196 331.832 22.5677 334.099 24.338C335.75 25.7697 336.879 27.7098 337.307 29.853C338.248 34.398 336.64 39.836 332.184 41.867C327.905 43.818 322.065 42.544 318.628 39.455C315.631 36.6798 314.49 32.4333 315.692 28.53C316.957 23.8722 321.416 20.8215 326.216 21.33C326.616 21.357 326.616 20.739 326.216 20.712" fill="#003849"/>
<path fill-rule="evenodd" clip-rule="evenodd" d="M326.287 23.827C323.01 23.545 319.918 25.38 318.595 28.391C317.328 31.2424 317.775 34.564 319.749 36.98C322.294 39.7381 326.151 40.8711 329.783 39.928C333.493 38.857 335.211 35.092 334.908 31.438C334.785 29.5654 333.992 27.7997 332.674 26.464C330.901 24.8939 328.653 23.9639 326.29 23.823C325.895 23.779 325.898 24.398 326.29 24.441C329.912 24.841 333.368 26.671 334.156 30.488C334.822 33.713 333.678 37.573 330.509 39.005C327.21 40.2572 323.489 39.5724 320.852 37.228C318.76 35.2474 317.98 32.2478 318.842 29.499C319.804 26.255 322.92 24.139 326.29 24.441C326.69 24.467 326.69 23.849 326.29 23.823" fill="#003849"/>
<path fill-rule="evenodd" clip-rule="evenodd" d="M353.614 30.774C349.103 30.3789 344.839 32.8965 343.006 37.038C341.248 40.9684 341.85 45.5537 344.563 48.897C348.069 52.7109 353.386 54.2912 358.406 53.011C360.794 52.3548 362.825 50.7773 364.052 48.625C365.253 46.3611 365.761 43.7944 365.514 41.244C365.354 38.9754 364.486 36.8143 363.032 35.065C361.194 33.0538 358.756 31.6887 356.08 31.172C355.266 30.9917 354.443 30.8581 353.613 30.772C353.218 30.729 353.221 31.348 353.613 31.39C356.483 31.5797 359.23 32.6277 361.496 34.398C363.148 35.8295 364.277 37.7696 364.704 39.913C365.645 44.458 364.038 49.896 359.581 51.926C355.302 53.877 349.462 52.603 346.025 49.514C343.029 46.7389 341.888 42.4923 343.089 38.589C344.355 33.9312 348.814 30.8805 353.613 31.389C354.013 31.416 354.013 30.798 353.613 30.771" fill="#003849"/>
<path fill-rule="evenodd" clip-rule="evenodd" d="M353.684 33.887C350.407 33.605 347.314 35.44 345.992 38.451C344.725 41.3024 345.171 44.6241 347.146 47.04C349.69 49.7961 353.545 50.9286 357.176 49.987C360.886 48.916 362.604 45.15 362.301 41.496C362.176 39.6244 361.382 37.8602 360.063 36.526C358.291 34.9559 356.043 34.0259 353.68 33.885C353.285 33.841 353.288 34.46 353.68 34.503C357.302 34.903 360.758 36.733 361.546 40.55C362.212 43.775 361.068 47.635 357.899 49.067C354.6 50.3196 350.878 49.6348 348.242 47.29C346.15 45.3091 345.37 42.3098 346.232 39.561C347.194 36.3168 350.309 34.2005 353.68 34.502C354.08 34.528 354.08 33.91 353.68 33.884" fill="#003849"/>
<path fill-rule="evenodd" clip-rule="evenodd" d="M338.096 34.203C339.925 33.067 342.531 34.245 343.496 35.997C343.688 36.345 344.223 36.034 344.03 35.685C342.903 33.643 339.892 32.358 337.781 33.669C337.444 33.879 337.754 34.414 338.094 34.203" fill="#003849"/>
<path fill-rule="evenodd" clip-rule="evenodd" d="M337.626 36.558C339.346 35.407 341.771 36.494 342.642 38.21C342.822 38.565 343.355 38.253 343.176 37.898C342.159 35.898 339.302 34.698 337.314 36.024C336.985 36.244 337.294 36.78 337.626 36.558Z" fill="#003849"/>
<path fill-rule="evenodd" clip-rule="evenodd" d="M321.235 29.901L326.63 27.401C326.991 27.234 326.677 26.701 326.317 26.867L320.922 29.367C320.562 29.534 320.875 30.067 321.235 29.901Z" fill="#003849"/>
<path fill-rule="evenodd" clip-rule="evenodd" d="M323.049 33.334C325.544 32.178 328.026 30.998 330.521 29.842C330.881 29.675 330.568 29.142 330.209 29.308C327.715 30.464 325.231 31.644 322.737 32.8C322.378 32.967 322.691 33.5 323.05 33.334" fill="#003849"/>
<path fill-rule="evenodd" clip-rule="evenodd" d="M326.924 35.165C327.665 34.853 328.384 34.493 329.114 34.155C329.26 34.0675 329.309 33.8794 329.224 33.732C329.136 33.5872 328.949 33.5382 328.801 33.621C328.12 33.938 327.451 34.279 326.759 34.57C326.598 34.6201 326.504 34.7862 326.543 34.95C326.59 35.114 326.759 35.2102 326.924 35.166" fill="#003849"/>
<path fill-rule="evenodd" clip-rule="evenodd" d="M348.124 41.571L355.318 38.24C355.679 38.073 355.365 37.54 355.006 37.706L347.812 41.037C347.452 41.204 347.765 41.737 348.124 41.571Z" fill="#003849"/>
<path fill-rule="evenodd" clip-rule="evenodd" d="M352.642 44.94C354.042 44.2607 355.453 43.6077 356.874 42.981C357.021 42.8942 357.07 42.7056 356.985 42.558C356.896 42.4137 356.71 42.3648 356.562 42.447C355.139 43.0743 353.729 43.7273 352.33 44.406C351.972 44.58 352.286 45.113 352.642 44.94Z" fill="#003849"/>
<path fill-rule="evenodd" clip-rule="evenodd" d="M356.75 46.1618L357.126 45.9441C357.161 45.9201 357.192 45.8852 357.214 45.8428C357.241 45.8052 357.26 45.7595 357.27 45.7099C357.282 45.6594 357.284 45.6058 357.275 45.5542C357.273 45.5024 357.26 45.4521 357.237 45.4087C357.196 45.3208 357.129 45.2564 357.051 45.2289L356.967 45.215C356.911 45.215 356.857 45.2333 356.809 45.2682L356.435 45.4859C356.399 45.5101 356.369 45.5448 356.346 45.5871C356.293 45.667 356.27 45.7729 356.285 45.8758C356.287 45.9276 356.299 45.9779 356.322 46.0213C356.363 46.1095 356.43 46.174 356.508 46.2011L356.591 46.215C356.647 46.2152 356.701 46.1969 356.749 46.1618" fill="#003849"/>
<path fill-rule="evenodd" clip-rule="evenodd" d="M82.6943 39.14C79.4573 39.755 76.2333 40.451 73.0243 41.199C71.7042 41.507 70.3733 41.805 69.0803 42.211C68.7838 42.2763 68.5 42.3898 68.2402 42.547C67.9531 42.8702 67.7951 43.2877 67.7963 43.72C67.6016 45.3346 67.5254 46.9613 67.5682 48.587C67.57 48.697 67.6295 48.7979 67.7249 48.8527C67.8203 48.9074 67.9374 48.9079 68.0333 48.854C68.7661 48.3287 69.423 47.7048 69.9853 47C70.2948 46.5678 70.6547 46.174 71.0573 45.827C71.8397 45.3025 72.6638 44.843 73.5212 44.453C75.8373 43.294 78.2073 42.253 80.5212 41.087C81.3947 40.6998 82.2241 40.2201 82.9952 39.656C83.3043 39.405 82.8652 38.97 82.5583 39.218C81.8911 39.7 81.1756 40.1112 80.4233 40.445C79.3232 41.002 78.2083 41.528 77.0933 42.054C74.9771 42.9469 72.9241 43.9826 70.9484 45.1539C69.6753 45.985 68.9973 47.454 67.7203 48.318L68.1853 48.586C68.1853 47.232 68.1993 45.873 68.3203 44.524C68.3533 44.158 68.3613 43.299 68.5853 43.055C68.8245 42.9222 69.0829 42.8274 69.3513 42.774C72.2313 41.894 75.2233 41.316 78.1653 40.691C79.7263 40.359 81.2903 40.033 82.8593 39.734C83.2493 39.66 83.0843 39.064 82.6943 39.134" fill="#003849"/>
<path fill-rule="evenodd" clip-rule="evenodd" d="M70.626 46.334C71.811 47.434 72.79 48.724 73.941 49.855C74.43 50.336 75.073 50.869 75.65 50.235C76.2538 49.5267 76.8192 48.7866 77.344 48.018C78.275 46.741 79.185 45.45 80.085 44.151C81.2144 42.5217 82.324 40.879 83.414 39.223C83.633 38.889 83.098 38.579 82.88 38.911C80.821 42.049 78.696 45.152 76.468 48.173C76.131 48.63 75.793 49.086 75.437 49.528C75.17 49.857 75.118 50.035 74.729 49.738C74.1651 49.2474 73.6488 48.7047 73.187 48.117C72.507 47.35 71.814 46.596 71.063 45.897C70.772 45.626 70.333 46.063 70.626 46.335" fill="#003849"/>
<path fill-rule="evenodd" clip-rule="evenodd" d="M83.1477 38.758C79.5237 38.589 75.9008 38.376 72.2727 38.285C70.5277 38.241 68.7727 38.2 67.0287 38.307C66.5287 38.337 64.9657 38.278 64.8547 39.007C64.7547 39.659 65.7457 40.551 66.1217 40.974C66.7607 41.706 67.4405 42.4015 68.1577 43.057C68.4527 43.323 68.8907 42.887 68.5947 42.62C68.0347 42.12 67.5097 41.567 66.9947 41.02C66.6947 40.696 66.3947 40.366 66.1157 40.02C65.9817 39.857 65.8497 39.692 65.7307 39.52C65.6642 39.3769 65.5835 39.2409 65.4897 39.114C65.3527 39 65.5277 39.178 65.4307 39.177C65.3937 39.177 65.4777 39.163 65.4607 39.161C65.6383 39.1357 65.8129 39.0925 65.9817 39.032C66.5177 38.9537 67.0581 38.9096 67.5997 38.9C71.1267 38.761 74.6777 38.965 78.1997 39.132C79.8487 39.21 81.4997 39.302 83.1477 39.379C83.5477 39.397 83.5477 38.779 83.1477 38.761" fill="#003849"/>
<path fill-rule="evenodd" clip-rule="evenodd" d="M52.5044 70.153C56.3542 68.9876 59.2545 65.8044 60.0574 61.863C60.355 60.3359 60.0961 58.7527 59.3274 57.4C58.5959 56.0659 57.477 54.985 56.1184 54.3C54.951 53.6852 53.5287 53.8302 52.5094 54.668C51.3224 55.68 50.4094 57.668 51.2284 59.148C52.0724 60.674 54.1284 61.042 55.7144 60.993C57.7994 60.9341 59.7766 60.0531 61.2144 58.542C62.3614 57.295 62.7694 55.584 63.3054 54.024C63.5539 53.1877 63.9362 52.3971 64.4374 51.683C64.9922 50.9142 65.833 50.401 66.7704 50.259C66.9411 50.259 67.0794 50.1207 67.0794 49.95C67.0794 49.7794 66.941 49.641 66.7704 49.641C65.5177 49.8065 64.4055 50.5256 63.7404 51.6C63.0853 52.7463 62.584 53.9738 62.2494 55.251C61.8776 56.6292 61.1011 57.8644 60.0204 58.797C58.3677 60.1012 56.2366 60.6375 54.1634 60.271C52.5504 59.971 51.0994 58.848 51.6784 57.056C52.1294 55.665 53.3154 54.321 54.8974 54.556C56.2112 54.8641 57.3663 55.6438 58.1434 56.747C59.0465 57.8106 59.5489 59.1568 59.5634 60.552C59.5254 64.693 56.1914 68.388 52.3454 69.559C51.9664 69.674 52.1284 70.271 52.5104 70.159" fill="#003849"/>
<path fill-rule="evenodd" clip-rule="evenodd" d="M16.1807 133.01C34.2327 114.71 56.9807 112.485 80.9707 111.001C78.2507 116.441 66.6277 122.376 60.9397 125.344C55.3668 128.117 49.5778 130.433 43.6297 132.268C34.7297 134.494 25.3297 132.763 16.4297 133.01" fill="#D67676"/>
<path fill-rule="evenodd" clip-rule="evenodd" d="M17.0225 133.368C24.4636 130.611 31.8875 127.796 39.4296 125.323C46.7966 122.908 54.3215 121.098 61.7635 118.943C65.8007 117.815 69.7601 116.426 73.6166 114.783C74.0535 114.592 73.6765 113.953 73.2426 114.143C66.2896 117.183 58.8825 118.985 51.5765 120.943C44.0455 122.966 36.6495 125.389 29.3156 128.043C25.1415 129.551 20.9875 131.111 16.8256 132.653C16.3815 132.818 16.5745 133.535 17.0255 133.369" fill="#003849"/>
<path fill-rule="evenodd" clip-rule="evenodd" d="M35.3348 121.868C33.0448 124.14 30.0948 125.814 28.2288 128.496C28.1446 128.642 28.1683 128.826 28.2868 128.946C29.7398 130.208 31.7798 130.364 33.5198 131.02C33.9678 131.188 34.1608 130.472 33.7198 130.304C32.1198 129.704 30.1448 129.577 28.8148 128.421L28.8728 128.871C30.6938 126.252 33.6238 124.613 35.8629 122.393C36.0078 122.247 36.0071 122.011 35.8613 121.867C35.7155 121.722 35.4798 121.722 35.3348 121.868" fill="#003849"/>
<path fill-rule="evenodd" clip-rule="evenodd" d="M44.669 118.356C43.134 120.509 41.122 122.282 39.723 124.538C39.6661 124.638 39.6581 124.758 39.7015 124.865C39.7448 124.971 39.8345 125.052 39.945 125.084C43.056 125.848 46.316 125.947 49.345 127.062C49.794 127.227 49.987 126.51 49.545 126.346C46.519 125.231 43.259 125.133 40.145 124.368C40.219 124.55 40.292 124.732 40.367 124.914C41.767 122.66 43.777 120.883 45.313 118.732C45.59 118.342 44.947 117.972 44.672 118.357" fill="#003849"/>
<path fill-rule="evenodd" clip-rule="evenodd" d="M54.1948 116.254C53.3168 117.854 52.1118 119.448 51.8087 121.289C51.7611 121.486 51.8745 121.686 52.0677 121.746C53.8851 122.371 55.7444 122.867 57.6318 123.23C58.0978 123.323 58.2977 122.608 57.8317 122.514C55.9441 122.152 54.0847 121.657 52.2678 121.03C52.3531 121.182 52.4394 121.334 52.5267 121.486C52.8207 119.708 53.9897 118.175 54.8387 116.629C55.0687 116.21 54.4287 115.835 54.1978 116.254" fill="#003849"/>
<path fill-rule="evenodd" clip-rule="evenodd" d="M63.5518 115.107C63.127 116.159 62.7556 117.232 62.4388 118.322C62.397 118.484 62.4665 118.654 62.6098 118.741C63.6819 119.2 64.7845 119.584 65.9098 119.891C66.3648 120.041 66.5588 119.325 66.1098 119.175C65.0443 118.889 63.9998 118.53 62.9838 118.1L63.1538 118.518C63.4708 117.428 63.8423 116.355 64.2668 115.303C64.4198 114.849 63.7038 114.655 63.5518 115.103" fill="#003849"/>
<path fill-rule="evenodd" clip-rule="evenodd" d="M48.699 118.544C48.3714 118.563 48.1152 118.834 48.1152 119.162C48.1152 119.49 48.3714 119.761 48.699 119.78C49.0267 119.761 49.2828 119.49 49.2828 119.162C49.2828 118.834 49.0267 118.563 48.699 118.544Z" fill="#003849"/>
<path fill-rule="evenodd" clip-rule="evenodd" d="M50.3074 116.813C49.9798 116.832 49.7236 117.103 49.7236 117.431C49.7236 117.759 49.9798 118.03 50.3074 118.049C50.6351 118.03 50.8912 117.759 50.8912 117.431C50.8912 117.103 50.6351 116.832 50.3074 116.813Z" fill="#003849"/>
<path fill-rule="evenodd" clip-rule="evenodd" d="M60.3221 120.275C59.9944 120.294 59.7383 120.565 59.7383 120.893C59.7383 121.221 59.9944 121.492 60.3221 121.511C60.6497 121.492 60.9058 121.221 60.9058 120.893C60.9058 120.565 60.6497 120.294 60.3221 120.275Z" fill="#003849"/>
<path fill-rule="evenodd" clip-rule="evenodd" d="M62.0535 121.264C61.7259 121.283 61.4697 121.554 61.4697 121.882C61.4697 122.21 61.7259 122.481 62.0535 122.5C62.3812 122.481 62.6373 122.21 62.6373 121.882C62.6373 121.554 62.3812 121.283 62.0535 121.264Z" fill="#003849"/>
<path fill-rule="evenodd" clip-rule="evenodd" d="M75.9012 112.98C75.5735 112.999 75.3174 113.27 75.3174 113.598C75.3174 113.926 75.5735 114.197 75.9012 114.216C76.2288 114.197 76.4849 113.926 76.4849 113.598C76.4849 113.27 76.2288 112.999 75.9012 112.98Z" fill="#003849"/>
<path fill-rule="evenodd" clip-rule="evenodd" d="M1.19891 113.06C0.456909 99.46 1.19891 86.105 9.60693 74.73C16.778 65.33 29.1429 57.667 40.2709 54.205C40.0239 66.57 34.0889 82.396 26.1709 91.793C22.2117 96.4134 17.7336 100.562 12.825 104.158C9.36292 106.878 5.65393 111.329 1.2019 112.319" fill="#5596A5"/>
<path fill-rule="evenodd" clip-rule="evenodd" d="M2.54669 110.933C5.77258 103.469 9.67944 96.3182 14.2176 89.5711C16.3437 86.338 18.5957 83.2 20.8027 80.024C22.9397 76.95 24.9267 73.775 27.0367 70.684C29.2715 67.2193 31.8915 64.0189 34.8467 61.144C35.1987 60.82 34.6717 60.296 34.3217 60.62C28.8587 65.66 25.1437 72.32 21.0117 78.412C18.8297 81.632 16.5257 84.766 14.3667 88.004C12.1267 91.363 9.97467 94.782 7.9787 98.293C5.68414 102.315 3.63153 106.47 1.83173 110.737C1.64771 111.176 2.36469 111.368 2.54669 110.937" fill="#003849"/>
<path fill-rule="evenodd" clip-rule="evenodd" d="M4.6626 93.649C4.80695 96.667 5.14099 99.6729 5.6626 102.649C5.70825 102.809 5.85394 102.92 6.02057 102.922C7.64191 102.976 9.25891 102.725 10.7876 102.182C12.3518 101.698 13.8791 101.102 15.3577 100.398C15.7896 100.198 15.4126 99.555 14.9836 99.758C13.5617 100.432 12.0933 101.003 10.5897 101.467C9.12506 101.99 7.57489 102.232 6.02057 102.18L6.3786 102.453C5.86926 99.543 5.54333 96.6038 5.40259 93.653C5.38159 93.178 4.63959 93.175 4.66058 93.653" fill="#003849"/>
<path fill-rule="evenodd" clip-rule="evenodd" d="M11.2157 81.407C11.4587 85.094 10.5667 88.893 11.5997 92.507C11.6467 92.6663 11.7916 92.7768 11.9577 92.78C13.8618 92.783 15.7554 92.4971 17.5737 91.932C19.4383 91.4566 21.2292 90.7285 22.8967 89.768C23.3036 89.52 22.9317 88.878 22.5227 89.128C20.9099 90.0604 19.1767 90.767 17.3716 91.228C15.6174 91.775 13.7902 92.0519 11.9527 92.049L12.3107 92.322C11.2987 88.778 12.1907 85.031 11.9527 81.416C11.9217 80.942 11.1797 80.938 11.2107 81.416" fill="#003849"/>
<path fill-rule="evenodd" clip-rule="evenodd" d="M17.6442 73.742C17.6442 75.01 17.5441 76.277 17.5251 77.542C17.4095 79.0408 17.5187 80.5485 17.8491 82.015C17.9283 82.442 18.2076 82.805 18.6002 82.991C19.0734 83.1421 19.5728 83.1942 20.0671 83.144C21.6254 83.0361 23.1713 82.7921 24.6871 82.415C26.0872 82.106 27.4781 81.741 28.8712 81.392C29.0612 81.3307 29.1689 81.1302 29.1152 80.9379C29.0615 80.7456 28.8655 80.6299 28.6711 80.676C26.1231 81.4074 23.5276 81.962 20.9031 82.336C20.2301 82.409 18.8761 82.705 18.5952 81.921C18.2562 80.5927 18.1437 79.2167 18.2621 77.851C18.2722 76.48 18.3781 75.11 18.3842 73.74C18.3842 73.5351 18.218 73.369 18.0131 73.369C17.8082 73.369 17.6422 73.5351 17.6422 73.74" fill="#003849"/>
<path fill-rule="evenodd" clip-rule="evenodd" d="M24.4458 65.21C24.4388 66.403 24.2778 67.595 24.2388 68.788C24.0752 69.9846 24.2173 71.2031 24.6518 72.33C25.1448 73.218 26.3378 73.039 27.1797 72.903C28.5916 72.6394 29.9758 72.2453 31.3148 71.726C32.5668 71.275 33.8148 70.784 35.0148 70.226C35.4478 70.026 35.0718 69.387 34.6407 69.586C32.4759 70.6107 30.2153 71.4196 27.8918 72.001C27.3639 72.1382 26.8241 72.2249 26.2798 72.26C25.9878 72.272 25.5728 72.306 25.3588 72.069C25.1246 71.6782 25.0043 71.2296 25.0118 70.774C24.9604 70.1517 24.9474 69.5269 24.9728 68.903C25.0078 67.671 25.1728 66.44 25.1838 65.208C25.1838 65.0031 25.0176 64.837 24.8127 64.837C24.6078 64.837 24.4418 65.0031 24.4418 65.208" fill="#003849"/>
<path fill-rule="evenodd" clip-rule="evenodd" d="M19.1287 69.167C18.801 69.1856 18.5449 69.4568 18.5449 69.785C18.5449 70.1132 18.801 70.3843 19.1287 70.403C19.4564 70.3843 19.7125 70.1132 19.7125 69.785C19.7125 69.4568 19.4564 69.1857 19.1287 69.167Z" fill="#003849"/>
<path fill-rule="evenodd" clip-rule="evenodd" d="M20.8592 67.308C20.5315 67.3266 20.2754 67.5978 20.2754 67.926C20.2754 68.2542 20.5315 68.5253 20.8592 68.544C21.1868 68.5253 21.4429 68.2542 21.4429 67.926C21.4429 67.5978 21.1868 67.3267 20.8592 67.308Z" fill="#003849"/>
<path fill-rule="evenodd" clip-rule="evenodd" d="M21.3533 69.908C21.0256 69.9266 20.7695 70.1978 20.7695 70.526C20.7695 70.8542 21.0256 71.1253 21.3533 71.144C21.681 71.1253 21.9371 70.8542 21.9371 70.526C21.9371 70.1978 21.681 69.9267 21.3533 69.908Z" fill="#003849"/>
<path fill-rule="evenodd" clip-rule="evenodd" d="M29.0193 76.833C28.6917 76.8517 28.4355 77.1228 28.4355 77.451C28.4355 77.7792 28.6917 78.0504 29.0193 78.069C29.347 78.0503 29.6031 77.7792 29.6031 77.451C29.6031 77.1228 29.347 76.8517 29.0193 76.833Z" fill="#003849"/>
<path fill-rule="evenodd" clip-rule="evenodd" d="M30.7508 74.479C30.4231 74.4977 30.167 74.7688 30.167 75.097C30.167 75.4252 30.4231 75.6964 30.7508 75.715C31.0784 75.6963 31.3345 75.4252 31.3345 75.097C31.3345 74.7688 31.0784 74.4977 30.7508 74.479Z" fill="#003849"/>
<path fill-rule="evenodd" clip-rule="evenodd" d="M31.616 77.08C31.2883 77.0986 31.0322 77.3698 31.0322 77.698C31.0322 78.0262 31.2883 78.2973 31.616 78.316C31.9437 78.2973 32.1998 78.0262 32.1998 77.698C32.1998 77.3698 31.9437 77.0987 31.616 77.08Z" fill="#003849"/>
<path fill-rule="evenodd" clip-rule="evenodd" d="M15.4187 95.252C15.0911 95.2707 14.835 95.5418 14.835 95.87C14.835 96.1982 15.0911 96.4693 15.4187 96.488C15.7463 96.4693 16.0024 96.1982 16.0024 95.87C16.0024 95.5418 15.7463 95.2707 15.4187 95.252Z" fill="#003849"/>
<path fill-rule="evenodd" clip-rule="evenodd" d="M18.0154 94.51C17.6877 94.5287 17.4316 94.7998 17.4316 95.128C17.4316 95.4562 17.6877 95.7273 18.0154 95.746C18.343 95.7273 18.5991 95.4562 18.5991 95.128C18.5991 94.7998 18.343 94.5287 18.0154 94.51Z" fill="#003849"/>
<path fill-rule="evenodd" clip-rule="evenodd" d="M6.88745 86.972C6.55981 86.9907 6.30371 87.2618 6.30371 87.59C6.30371 87.9182 6.55981 88.1893 6.88745 88.208C7.21509 88.1893 7.47119 87.9182 7.47119 87.59C7.47119 87.2618 7.21509 86.9907 6.88745 86.972Z" fill="#003849"/>
<path fill-rule="evenodd" clip-rule="evenodd" d="M7.38159 84.124C7.05396 84.1427 6.79785 84.4138 6.79785 84.742C6.79785 85.0702 7.05396 85.3413 7.38159 85.36C7.70923 85.3413 7.96533 85.0702 7.96533 84.742C7.96533 84.4138 7.70923 84.1427 7.38159 84.124Z" fill="#003849"/>
<path fill-rule="evenodd" clip-rule="evenodd" d="M36.8094 62.49C36.4817 62.5086 36.2256 62.7798 36.2256 63.108C36.2256 63.4362 36.4817 63.7073 36.8094 63.726C37.137 63.7073 37.3931 63.4362 37.3931 63.108C37.3931 62.7798 37.137 62.5087 36.8094 62.49Z" fill="#003849"/>
<path fill-rule="evenodd" clip-rule="evenodd" d="M0.482361 133.132C0.095398 125.646 -0.729614 109.281 1.13336 101.818C4.63336 89.471 9.52637 97.003 11.2334 105.298C15.7474 91.306 21.1204 77.389 27.9434 96.529C30.3434 94.829 38.7544 81.874 42.8584 88.471C44.3584 91.201 36.8494 99.733 35.2334 102.365C40.3934 102.814 51.2454 103.588 44.0194 110.93C40.4064 114.601 32.5194 115.646 27.9904 117.851C33.4574 120.751 41.7574 124.945 31.8464 129.28C25.3244 132.523 7.64636 132.542 0.486389 133.131" fill="#003849"/>
<path fill-rule="evenodd" clip-rule="evenodd" d="M1.38965 134.023C11.6067 123.215 21.6107 112.196 31.1656 100.795C33.8083 97.6423 36.4127 94.458 38.9786 91.242C39.4697 90.626 38.5997 89.742 38.1036 90.368C28.8397 101.991 19.0306 113.174 8.96167 124.103C6.16632 127.137 3.35101 130.152 0.515686 133.149C-0.0303345 133.727 0.842651 134.603 1.39069 134.023" fill="#5596A5"/>
<path fill-rule="evenodd" clip-rule="evenodd" d="M20.8595 95.503C20.8485 100.614 20.1215 105.728 20.6125 110.835C20.6244 111.171 20.8942 111.441 21.2305 111.453C26.5175 111.953 31.7755 110.728 37.0575 110.711C37.3851 110.692 37.6412 110.421 37.6412 110.093C37.6412 109.765 37.3851 109.494 37.0575 109.475C31.7755 109.492 26.5175 110.72 21.2305 110.217L21.8485 110.835C21.3575 105.728 22.0845 100.613 22.0955 95.503C22.0768 95.1753 21.8057 94.9192 21.4775 94.9192C21.1493 94.9192 20.8782 95.1753 20.8595 95.503Z" fill="#5596A5"/>
<path fill-rule="evenodd" clip-rule="evenodd" d="M7.0072 109.846C7.0072 115.16 6.69019 120.597 7.77118 125.837C7.84662 126.106 8.09198 126.291 8.37122 126.291C13.8652 126.052 19.3902 126.536 24.8572 125.774C25.6412 125.665 25.3082 124.474 24.5282 124.582C19.1802 125.327 13.7482 124.82 8.37122 125.054L8.97119 125.508C7.91418 120.384 8.24817 115.043 8.25116 109.846C8.23254 109.518 7.96136 109.262 7.63318 109.262C7.30499 109.262 7.03381 109.518 7.0152 109.846" fill="#5596A5"/>
<path fill-rule="evenodd" clip-rule="evenodd" d="M17.0255 103.973C16.525 103.989 16.1279 104.4 16.1279 104.9C16.1279 105.401 16.525 105.812 17.0254 105.828C17.5258 105.812 17.9229 105.401 17.9229 104.9C17.9229 104.4 17.5258 103.989 17.0255 103.973" fill="#5596A5"/>
<path fill-rule="evenodd" clip-rule="evenodd" d="M17.0255 99.274C16.525 99.2905 16.1279 99.7009 16.1279 100.201C16.1279 100.702 16.525 101.113 17.0254 101.129C17.5258 101.113 17.9229 100.702 17.9229 100.201C17.9229 99.7009 17.5258 99.2905 17.0255 99.274" fill="#5596A5"/>
<path fill-rule="evenodd" clip-rule="evenodd" d="M25.4336 100.016C24.9332 100.032 24.5361 100.443 24.5361 100.943C24.5361 101.444 24.9332 101.855 25.4336 101.871C25.934 101.855 26.3311 101.444 26.3311 100.943C26.3311 100.443 25.934 100.032 25.4337 100.016" fill="#5596A5"/>
<path fill-rule="evenodd" clip-rule="evenodd" d="M37.7979 105.209C37.2975 105.225 36.9004 105.636 36.9004 106.136C36.9004 106.637 37.2975 107.048 37.7979 107.064C38.2982 107.048 38.6954 106.637 38.6954 106.136C38.6954 105.636 38.2982 105.225 37.7979 105.209" fill="#5596A5"/>
<path fill-rule="evenodd" clip-rule="evenodd" d="M41.5068 106.693C41.0065 106.709 40.6094 107.12 40.6094 107.62C40.6094 108.121 41.0065 108.532 41.5068 108.548C42.0072 108.532 42.4044 108.121 42.4044 107.62C42.4044 107.12 42.0072 106.709 41.5068 106.693" fill="#5596A5"/>
<path fill-rule="evenodd" clip-rule="evenodd" d="M21.4766 118.316C20.9762 118.332 20.5791 118.743 20.5791 119.244C20.5791 119.744 20.9762 120.155 21.4766 120.171C21.977 120.155 22.3741 119.744 22.3741 119.244C22.3741 118.743 21.977 118.332 21.4766 118.316" fill="#5596A5"/>
<path fill-rule="evenodd" clip-rule="evenodd" d="M31.6152 123.262C31.1149 123.278 30.7178 123.689 30.7178 124.189C30.7178 124.69 31.1149 125.101 31.6152 125.117C32.1156 125.101 32.5128 124.69 32.5128 124.189C32.5128 123.689 32.1157 123.278 31.6153 123.262" fill="#5596A5"/>
<path fill-rule="evenodd" clip-rule="evenodd" d="M6.88672 101.747C6.38635 101.763 5.98926 102.174 5.98926 102.675C5.98926 103.175 6.38635 103.586 6.88672 103.602C7.38708 103.586 7.78424 103.175 7.78424 102.675C7.78424 102.174 7.38708 101.763 6.88672 101.747" fill="#5596A5"/>
<path fill-rule="evenodd" clip-rule="evenodd" d="M3.91895 119.552C3.41858 119.568 3.02148 119.979 3.02148 120.48C3.02148 120.98 3.41858 121.391 3.91895 121.407C4.41937 121.391 4.81647 120.98 4.81647 120.48C4.81647 119.979 4.41937 119.568 3.91895 119.552" fill="#5596A5"/>
<path fill-rule="evenodd" clip-rule="evenodd" d="M358.569 133.01C340.517 114.71 317.769 112.485 293.779 111.001C296.499 116.441 308.122 122.376 313.81 125.344C319.383 128.117 325.172 130.433 331.12 132.268C340.02 134.494 349.42 132.763 358.32 133.01" fill="#FFD066"/>
<path fill-rule="evenodd" clip-rule="evenodd" d="M357.927 132.652C350.486 129.896 343.062 127.08 335.52 124.608C328.26 122.229 320.851 120.433 313.514 118.323C309.426 117.196 305.417 115.799 301.514 114.143C301.081 113.954 300.702 114.593 301.14 114.783C308.016 117.79 315.318 119.61 322.546 121.545C330.188 123.592 337.693 126.031 345.133 128.717C349.344 130.238 353.533 131.812 357.733 133.367C358.181 133.533 358.374 132.816 357.933 132.651" fill="#003849"/>
<path fill-rule="evenodd" clip-rule="evenodd" d="M338.896 122.391C341.134 124.611 344.064 126.25 345.886 128.87L345.944 128.42C344.614 129.576 342.635 129.702 341.038 130.303C340.596 130.47 340.787 131.187 341.238 131.019C342.979 130.364 345.018 130.208 346.472 128.945C346.59 128.825 346.614 128.641 346.53 128.495C344.664 125.812 341.714 124.139 339.424 121.867C339.279 121.722 339.044 121.722 338.899 121.867C338.754 122.012 338.754 122.247 338.899 122.392" fill="#003849"/>
<path fill-rule="evenodd" clip-rule="evenodd" d="M329.441 118.731C330.976 120.883 332.99 122.659 334.387 124.913L334.609 124.367C331.498 125.132 328.238 125.231 325.209 126.345C324.765 126.509 324.957 127.226 325.409 127.061C328.435 125.946 331.695 125.847 334.809 125.083C334.919 125.051 335.009 124.97 335.052 124.864C335.096 124.757 335.088 124.637 335.031 124.537C333.631 122.281 331.62 120.508 330.085 118.355C329.81 117.97 329.166 118.34 329.444 118.73" fill="#003849"/>
<path fill-rule="evenodd" clip-rule="evenodd" d="M319.92 116.629C320.769 118.175 321.938 119.708 322.232 121.486L322.491 121.03C320.674 121.656 318.814 122.152 316.927 122.514C316.46 122.608 316.657 123.324 317.127 123.23C319.014 122.868 320.874 122.372 322.691 121.746C322.883 121.685 322.996 121.486 322.95 121.29C322.65 119.449 321.442 117.856 320.564 116.255C320.334 115.837 319.693 116.21 319.923 116.63" fill="#003849"/>
<path fill-rule="evenodd" clip-rule="evenodd" d="M310.484 115.304C310.909 116.356 311.28 117.429 311.597 118.519L311.768 118.1C310.752 118.53 309.707 118.889 308.641 119.175C308.19 119.324 308.383 120.041 308.841 119.891C309.967 119.584 311.069 119.2 312.141 118.741C312.284 118.655 312.354 118.485 312.311 118.323C311.995 117.233 311.624 116.16 311.198 115.108C311.047 114.657 310.329 114.851 310.483 115.308" fill="#003849"/>
<path fill-rule="evenodd" clip-rule="evenodd" d="M326.052 118.544C326.379 118.563 326.635 118.834 326.635 119.162C326.635 119.49 326.379 119.761 326.052 119.78C325.724 119.761 325.468 119.49 325.468 119.162C325.468 118.834 325.724 118.563 326.052 118.544Z" fill="#003849"/>
<path fill-rule="evenodd" clip-rule="evenodd" d="M324.443 116.813C324.771 116.832 325.027 117.103 325.027 117.431C325.027 117.759 324.771 118.03 324.443 118.049C324.115 118.03 323.859 117.759 323.859 117.431C323.859 117.103 324.115 116.832 324.443 116.813Z" fill="#003849"/>
<path fill-rule="evenodd" clip-rule="evenodd" d="M314.429 120.275C314.756 120.294 315.012 120.565 315.012 120.893C315.012 121.221 314.756 121.492 314.429 121.511C314.101 121.492 313.845 121.221 313.845 120.893C313.845 120.565 314.101 120.294 314.429 120.275Z" fill="#003849"/>
<path fill-rule="evenodd" clip-rule="evenodd" d="M312.697 121.264C313.025 121.283 313.281 121.554 313.281 121.882C313.281 122.21 313.025 122.481 312.697 122.5C312.37 122.481 312.113 122.21 312.113 121.882C312.113 121.554 312.37 121.283 312.697 121.264Z" fill="#003849"/>
<path fill-rule="evenodd" clip-rule="evenodd" d="M298.849 112.98C299.177 112.999 299.433 113.27 299.433 113.598C299.433 113.926 299.177 114.197 298.849 114.216C298.522 114.197 298.266 113.926 298.266 113.598C298.266 113.27 298.522 112.999 298.849 112.98Z" fill="#003849"/>
<path fill-rule="evenodd" clip-rule="evenodd" d="M373.552 113.06C374.294 99.46 373.552 86.105 365.143 74.73C357.972 65.33 345.608 57.667 334.479 54.205C334.726 66.57 340.661 82.396 348.579 91.793C352.541 96.4138 357.022 100.563 361.933 104.158C365.395 106.878 369.105 111.329 373.557 112.319" fill="#5596A5"/>
<path fill-rule="evenodd" clip-rule="evenodd" d="M372.92 110.737C369.691 103.245 365.779 96.0659 361.236 89.2899C359.074 85.997 356.777 82.804 354.536 79.569C352.381 76.464 350.376 73.257 348.236 70.139C345.998 66.6834 343.379 63.4903 340.428 60.62C340.078 60.297 339.552 60.82 339.903 61.144C345.346 66.166 349.033 72.8 353.154 78.87C355.3 82.03 357.56 85.109 359.681 88.286C361.902 91.614 364.038 95 366.021 98.475C368.331 102.499 370.395 106.66 372.203 110.933C372.385 111.367 373.103 111.177 372.918 110.733" fill="#003849"/>
<path fill-rule="evenodd" clip-rule="evenodd" d="M369.349 93.649C369.208 96.5999 368.882 99.5391 368.373 102.449L368.731 102.176C367.177 102.228 365.627 101.986 364.163 101.463C362.659 100.999 361.191 100.428 359.769 99.754C359.34 99.554 358.962 100.191 359.395 100.394C360.873 101.098 362.401 101.694 363.965 102.178C365.493 102.721 367.11 102.972 368.731 102.918C368.897 102.915 369.042 102.804 369.089 102.645C369.61 99.6689 369.944 96.663 370.089 93.645C370.111 93.168 369.369 93.169 369.347 93.645" fill="#003849"/>
<path fill-rule="evenodd" clip-rule="evenodd" d="M362.794 81.407C362.557 85.022 363.449 88.769 362.436 92.313L362.794 92.04C360.957 92.0429 359.129 91.766 357.375 91.219C355.57 90.7582 353.837 90.0516 352.224 89.119C351.816 88.87 351.442 89.511 351.85 89.759C353.519 90.7223 355.311 91.4528 357.178 91.93C358.996 92.4952 360.89 92.7811 362.794 92.778C362.96 92.7745 363.105 92.6641 363.152 92.505C364.185 88.889 363.293 85.088 363.536 81.405C363.567 80.928 362.825 80.93 362.794 81.405" fill="#003849"/>
<path fill-rule="evenodd" clip-rule="evenodd" d="M356.365 73.742C356.365 74.907 356.457 76.073 356.479 77.242C356.577 78.6844 356.502 80.1334 356.255 81.558C356.18 81.889 356.121 82.225 355.806 82.334C355.33 82.4452 354.837 82.4639 354.354 82.389C352.854 82.2457 351.367 81.9906 349.905 81.626C348.623 81.337 347.353 81.002 346.078 80.682C345.884 80.6359 345.688 80.7515 345.634 80.9439C345.58 81.1362 345.688 81.3367 345.878 81.398C348.602 82.1947 351.386 82.7702 354.202 83.119C355.086 83.194 356.348 83.319 356.777 82.353C357.198 81.0209 357.352 79.6186 357.228 78.227C357.228 76.727 357.111 75.239 357.104 73.745C357.104 73.5401 356.938 73.374 356.733 73.374C356.528 73.374 356.362 73.5401 356.362 73.745" fill="#003849"/>
<path fill-rule="evenodd" clip-rule="evenodd" d="M349.564 65.21C349.571 66.268 349.708 67.326 349.756 68.383C349.925 69.5464 349.84 70.7324 349.507 71.86C349.186 72.586 347.913 72.225 347.325 72.106C346.012 71.8173 344.723 71.4309 343.467 70.95C342.332 70.537 341.205 70.092 340.107 69.588C339.676 69.388 339.299 70.029 339.733 70.228C342.077 71.3611 344.541 72.2275 347.077 72.811C347.877 72.978 349.258 73.311 349.908 72.603C350.635 71.815 350.538 70.29 350.526 69.303C350.51 67.934 350.316 66.572 350.307 65.203C350.307 64.9981 350.141 64.832 349.936 64.832C349.731 64.832 349.565 64.9981 349.565 65.203" fill="#003849"/>
<path fill-rule="evenodd" clip-rule="evenodd" d="M355.623 69.167C355.951 69.1856 356.207 69.4568 356.207 69.785C356.207 70.1132 355.951 70.3843 355.623 70.403C355.295 70.3843 355.039 70.1132 355.039 69.785C355.039 69.4568 355.295 69.1857 355.623 69.167Z" fill="#003849"/>
<path fill-rule="evenodd" clip-rule="evenodd" d="M353.891 67.308C354.219 67.3266 354.475 67.5978 354.475 67.926C354.475 68.2542 354.219 68.5253 353.891 68.544C353.564 68.5253 353.308 68.2542 353.308 67.926C353.308 67.5978 353.564 67.3267 353.891 67.308Z" fill="#003849"/>
<path fill-rule="evenodd" clip-rule="evenodd" d="M353.397 69.908C353.725 69.9266 353.981 70.1978 353.981 70.526C353.981 70.8542 353.725 71.1253 353.397 71.144C353.07 71.1253 352.813 70.8542 352.813 70.526C352.813 70.1978 353.07 69.9267 353.397 69.908Z" fill="#003849"/>
<path fill-rule="evenodd" clip-rule="evenodd" d="M345.731 76.833C346.059 76.8517 346.315 77.1228 346.315 77.451C346.315 77.7792 346.059 78.0504 345.731 78.069C345.404 78.0503 345.147 77.7792 345.147 77.451C345.147 77.1228 345.404 76.8517 345.731 76.833Z" fill="#003849"/>
<path fill-rule="evenodd" clip-rule="evenodd" d="M344 74.479C344.328 74.4977 344.584 74.7688 344.584 75.097C344.584 75.4252 344.328 75.6964 344 75.715C343.672 75.6963 343.416 75.4252 343.416 75.097C343.416 74.7688 343.672 74.4977 344 74.479Z" fill="#003849"/>
<path fill-rule="evenodd" clip-rule="evenodd" d="M343.135 77.08C343.462 77.0986 343.719 77.3698 343.719 77.698C343.719 78.0262 343.462 78.2973 343.135 78.316C342.807 78.2973 342.551 78.0262 342.551 77.698C342.551 77.3698 342.807 77.0987 343.135 77.08Z" fill="#003849"/>
<path fill-rule="evenodd" clip-rule="evenodd" d="M359.332 95.252C359.66 95.2707 359.916 95.5418 359.916 95.87C359.916 96.1982 359.66 96.4693 359.332 96.488C359.004 96.4693 358.748 96.1982 358.748 95.87C358.748 95.5418 359.004 95.2707 359.332 95.252Z" fill="#003849"/>
<path fill-rule="evenodd" clip-rule="evenodd" d="M356.735 94.51C357.063 94.5287 357.319 94.7998 357.319 95.128C357.319 95.4562 357.063 95.7273 356.735 95.746C356.407 95.7273 356.151 95.4562 356.151 95.128C356.151 94.7998 356.407 94.5287 356.735 94.51Z" fill="#003849"/>
<path fill-rule="evenodd" clip-rule="evenodd" d="M367.863 86.972C368.191 86.9907 368.447 87.2618 368.447 87.59C368.447 87.9182 368.191 88.1893 367.863 88.208C367.536 88.1893 367.279 87.9182 367.279 87.59C367.279 87.2618 367.536 86.9907 367.863 86.972Z" fill="#003849"/>
<path fill-rule="evenodd" clip-rule="evenodd" d="M367.369 84.124C367.697 84.1427 367.953 84.4138 367.953 84.742C367.953 85.0702 367.697 85.3413 367.369 85.36C367.041 85.3413 366.785 85.0702 366.785 84.742C366.785 84.4138 367.041 84.1427 367.369 84.124Z" fill="#003849"/>
<path fill-rule="evenodd" clip-rule="evenodd" d="M337.941 62.49C338.269 62.5086 338.525 62.7798 338.525 63.108C338.525 63.4362 338.269 63.7073 337.941 63.726C337.614 63.7073 337.357 63.4362 337.357 63.108C337.357 62.7798 337.614 62.5087 337.941 62.49Z" fill="#003849"/>
<path fill-rule="evenodd" clip-rule="evenodd" d="M374.268 133.132C374.656 125.646 375.481 109.281 373.617 101.818C370.117 89.471 365.224 97.003 363.517 105.298C359.004 91.306 353.629 77.389 346.807 96.529C344.407 94.829 335.996 81.874 331.891 88.471C330.397 91.201 337.9 99.733 339.517 102.365C334.356 102.814 323.505 103.588 330.731 110.93C334.344 114.601 342.231 115.646 346.761 117.851C341.295 120.751 332.994 124.945 342.905 129.28C349.427 132.523 367.105 132.542 374.265 133.131" fill="#003849"/>
<path fill-rule="evenodd" clip-rule="evenodd" d="M374.237 133.149C364.02 122.34 354.016 111.321 344.461 99.92C341.818 96.7673 339.214 93.583 336.649 90.367C336.149 89.745 335.283 90.625 335.774 91.241C345.039 102.864 354.848 114.046 364.916 124.976C367.712 128.01 370.527 131.025 373.362 134.022C373.91 134.601 374.783 133.722 374.237 133.148" fill="#5596A5"/>
<path fill-rule="evenodd" clip-rule="evenodd" d="M352.655 95.503C352.666 100.614 353.393 105.728 352.902 110.835L353.52 110.217C348.233 110.717 342.975 109.492 337.693 109.475C337.366 109.494 337.109 109.765 337.109 110.093C337.109 110.421 337.366 110.692 337.693 110.711C342.975 110.728 348.233 111.956 353.52 111.453C353.857 111.442 354.127 111.171 354.138 110.835C354.629 105.728 353.902 100.613 353.891 95.503C353.873 95.1753 353.601 94.919 353.273 94.919C352.945 94.919 352.674 95.1753 352.655 95.503Z" fill="#5596A5"/>
<path fill-rule="evenodd" clip-rule="evenodd" d="M366.503 109.846C366.503 115.046 366.84 120.385 365.783 125.508L366.383 125.054C361.006 124.82 355.575 125.327 350.227 124.582C349.448 124.473 349.112 125.665 349.898 125.774C355.365 126.536 360.89 126.052 366.383 126.291C366.663 126.292 366.908 126.106 366.983 125.837C368.064 120.597 367.75 115.16 367.747 109.846C367.729 109.518 367.458 109.262 367.129 109.262C366.801 109.262 366.53 109.518 366.511 109.846" fill="#5596A5"/>
<path fill-rule="evenodd" clip-rule="evenodd" d="M357.726 103.973C358.226 103.989 358.623 104.4 358.623 104.9C358.623 105.401 358.226 105.812 357.726 105.828C357.225 105.812 356.828 105.401 356.828 104.9C356.828 104.4 357.225 103.989 357.726 103.973" fill="#5596A5"/>
<path fill-rule="evenodd" clip-rule="evenodd" d="M357.726 99.274C358.226 99.2905 358.623 99.7009 358.623 100.201C358.623 100.702 358.226 101.113 357.726 101.129C357.225 101.113 356.828 100.702 356.828 100.201C356.828 99.7009 357.225 99.2905 357.726 99.274" fill="#5596A5"/>
<path fill-rule="evenodd" clip-rule="evenodd" d="M349.317 100.016C349.818 100.032 350.215 100.443 350.215 100.943C350.215 101.444 349.818 101.855 349.317 101.871C348.817 101.855 348.42 101.444 348.42 100.943C348.42 100.443 348.817 100.032 349.317 100.016" fill="#5596A5"/>
<path fill-rule="evenodd" clip-rule="evenodd" d="M336.952 105.209C337.453 105.225 337.85 105.636 337.85 106.136C337.85 106.637 337.453 107.048 336.952 107.064C336.452 107.048 336.055 106.637 336.055 106.136C336.055 105.636 336.452 105.225 336.952 105.209" fill="#5596A5"/>
<path fill-rule="evenodd" clip-rule="evenodd" d="M333.243 106.693C333.743 106.709 334.141 107.12 334.141 107.62C334.141 108.121 333.743 108.532 333.243 108.548C332.743 108.532 332.346 108.121 332.346 107.62C332.346 107.12 332.743 106.709 333.243 106.693" fill="#5596A5"/>
<path fill-rule="evenodd" clip-rule="evenodd" d="M353.274 118.316C353.775 118.332 354.172 118.743 354.172 119.244C354.172 119.744 353.775 120.155 353.274 120.171C352.774 120.155 352.377 119.744 352.377 119.244C352.377 118.743 352.774 118.332 353.274 118.316" fill="#5596A5"/>
<path fill-rule="evenodd" clip-rule="evenodd" d="M343.136 123.262C343.636 123.278 344.033 123.689 344.033 124.189C344.033 124.69 343.636 125.101 343.136 125.117C342.635 125.101 342.238 124.69 342.238 124.189C342.238 123.689 342.635 123.278 343.136 123.262" fill="#5596A5"/>
<path fill-rule="evenodd" clip-rule="evenodd" d="M367.864 101.747C368.365 101.763 368.762 102.174 368.762 102.675C368.762 103.175 368.365 103.586 367.864 103.602C367.364 103.586 366.967 103.175 366.967 102.675C366.967 102.174 367.364 101.763 367.864 101.747" fill="#5596A5"/>
<path fill-rule="evenodd" clip-rule="evenodd" d="M370.831 119.552C371.331 119.568 371.729 119.979 371.729 120.48C371.729 120.98 371.331 121.391 370.831 121.407C370.331 121.391 369.934 120.98 369.934 120.48C369.934 119.979 370.331 119.568 370.831 119.552" fill="#5596A5"/>
<path fill-rule="evenodd" clip-rule="evenodd" d="M160.703 134.081C160.332 128.641 159.467 123.695 161.198 118.381C161.693 117.021 162.929 112.322 165.031 113.312C166.515 113.93 166.267 117.887 166.762 119.123C168.988 116.65 168.988 112.323 171.708 110.097C175.417 106.882 174.181 112.697 174.308 114.797C176.781 113.684 180.614 106.142 183.952 107.255C187.043 108.368 179.377 115.539 178.512 117.023C179.996 117.27 181.603 116.281 183.212 116.405C185.561 116.529 186.427 118.012 184.201 119.496C181.852 120.856 175.793 120.732 174.801 123.696C176.285 124.438 182.838 122.83 182.467 126.045C182.096 128.394 176.161 128.765 174.43 129.26C169.608 130.496 165.53 132.475 161.076 134.453" fill="#4094A8"/>
<path fill-rule="evenodd" clip-rule="evenodd" d="M161.216 134.113C165.759 127.189 172.003 121.69 177.525 115.59C179.044 113.912 180.503 112.181 181.865 110.373C182.104 110.055 181.565 109.746 181.331 110.061C176.372 116.647 170.057 122.03 164.773 128.335C163.304 130.076 161.938 131.901 160.682 133.801C160.463 134.135 160.999 134.445 161.216 134.113" fill="#003849"/>
<path fill-rule="evenodd" clip-rule="evenodd" d="M170.914 113.967C170.218 116.783 169.923 119.683 170.038 122.581C170.04 122.677 170.085 122.767 170.161 122.826C170.238 122.884 170.337 122.905 170.43 122.881C174.243 122.073 177.769 120.321 181.43 119.048C181.803 118.918 181.642 118.321 181.265 118.448C177.6 119.721 174.073 121.473 170.265 122.281L170.656 122.581C170.541 119.738 170.829 116.894 171.511 114.132C171.588 113.744 170.992 113.577 170.911 113.968" fill="#003849"/>
<path fill-rule="evenodd" clip-rule="evenodd" d="M163.856 119.12C164.201 122.406 164.367 125.708 164.351 129.012C164.351 129.109 164.396 129.2 164.473 129.258C164.55 129.317 164.649 129.337 164.743 129.312C168.484 128.208 172.281 127.3 176.118 126.592C176.508 126.518 176.343 125.922 175.953 125.992C172.116 126.701 168.319 127.609 164.578 128.712L164.969 129.012C164.985 125.708 164.819 122.405 164.474 119.119C164.444 118.726 163.826 118.72 163.856 119.12Z" fill="#003849"/>
<path fill-rule="evenodd" clip-rule="evenodd" d="M140.731 98.074C155.419 104.533 164.383 122.613 161.498 135.539C143.713 130.574 141.031 113.432 140.731 98.074Z" fill="#003849"/>
<path fill-rule="evenodd" clip-rule="evenodd" d="M144.239 103.326C148.739 111.475 152.379 120.051 156.639 128.319C157.839 130.654 159.1 132.963 160.433 135.227C160.519 135.374 160.708 135.424 160.856 135.338C161.003 135.252 161.053 135.062 160.967 134.915C156.251 126.907 152.561 118.364 148.436 110.05C147.26 107.68 146.047 105.33 144.769 103.014C144.577 102.666 144.042 102.977 144.235 103.326" fill="#4094A8"/>
<path fill-rule="evenodd" clip-rule="evenodd" d="M144.299 110.762C145.978 111.413 147.607 112.188 149.171 113.08C149.255 113.127 149.355 113.134 149.444 113.098C149.532 113.062 149.6 112.987 149.626 112.895C150.026 110.957 149.757 108.957 150.007 107.002C150.058 106.609 149.439 106.612 149.389 107.002C149.146 108.902 149.42 110.851 149.029 112.731L149.483 112.546C147.872 111.63 146.194 110.834 144.464 110.166C144.089 110.03 143.927 110.628 144.299 110.766" fill="#4094A8"/>
<path fill-rule="evenodd" clip-rule="evenodd" d="M145.66 117.068C148.013 117.935 150.36 118.81 152.634 119.881C152.717 119.928 152.817 119.935 152.906 119.899C152.995 119.863 153.062 119.788 153.089 119.696C153.467 117.459 153.718 115.202 153.841 112.937C153.865 112.537 153.247 112.537 153.223 112.937C153.104 115.147 152.859 117.349 152.492 119.532L152.946 119.347C150.628 118.254 148.228 117.358 145.825 116.472C145.451 116.335 145.29 116.931 145.66 117.072" fill="#4094A8"/>
<path fill-rule="evenodd" clip-rule="evenodd" d="M149.121 124.61C151.48 125.6 153.893 126.447 156.292 127.33C156.457 127.371 156.624 127.276 156.673 127.114C157.392 125.177 157.853 123.154 158.043 121.097C158.096 120.704 157.477 120.708 157.425 121.097C157.235 123.099 156.782 125.067 156.076 126.95L156.457 126.734C154.057 125.851 151.644 125.003 149.286 124.014C148.92 123.86 148.76 124.458 149.121 124.614" fill="#4094A8"/>
<path fill-rule="evenodd" clip-rule="evenodd" d="M228.899 118.392C224.151 109.515 209.399 110.366 205.839 119.706C205.317 121.083 205.115 122.56 205.246 124.027C204.969 126.048 205.304 128.105 206.208 129.934C207.899 133.411 212.008 135.14 215.636 135.501C224.656 136.401 233.65 127.275 228.899 118.393" fill="#FFD066"/>
<path fill-rule="evenodd" clip-rule="evenodd" d="M216.767 125.239C217.614 125.272 218.843 125.149 219.073 124.139C219.136 123.3 218.763 122.488 218.087 121.989C217.373 121.301 216.39 120.965 215.405 121.072C214.226 121.384 213.314 122.32 213.033 123.506C212.497 124.78 212.673 126.241 213.496 127.351C214.362 128.272 215.551 128.822 216.814 128.886C219.849 129.199 222.964 127.597 223.557 124.405C224.296 120.422 220.719 117.105 217.147 116.259C213.883 115.489 210.469 116.548 209 119.738C207.49 123.017 208.27 127.277 210.042 130.306C210.928 131.92 212.444 133.094 214.228 133.549C216.251 133.938 218.337 133.848 220.319 133.287C222.264 132.848 224.034 131.839 225.402 130.387C226.432 129.173 227.1 127.694 227.328 126.118C227.828 122.998 227.006 119.334 224.503 117.23C223.908 116.733 223.235 116.341 222.51 116.069C222.138 115.927 221.977 116.525 222.345 116.669C228 118.823 228.275 127.902 223.614 131.169C222.055 132.198 220.271 132.836 218.414 133.03C216.617 133.379 214.757 133.187 213.069 132.479C211.653 131.663 210.566 130.379 209.995 128.848C209.289 127.242 208.894 125.517 208.831 123.764C208.773 120.946 209.994 117.937 212.841 116.957C216.174 115.991 219.757 117.197 221.829 119.982C222.892 121.345 223.262 123.125 222.829 124.798C222.423 126.172 221.414 127.288 220.088 127.829C218.188 128.603 215.038 128.651 213.778 126.702C212.72 125.065 213.755 121.343 216.119 121.682C216.909 121.822 217.616 122.26 218.095 122.905C218.42 123.339 218.739 124.052 218.154 124.412C217.721 124.612 217.24 124.686 216.768 124.624C216.368 124.608 216.368 125.224 216.768 125.242" fill="#003849"/>
<path fill-rule="evenodd" clip-rule="evenodd" d="M217.699 102.278V110.15C217.699 110.321 217.923 110.459 218.199 110.459C218.475 110.459 218.699 110.321 218.699 110.15V102.278C218.699 102.107 218.475 101.969 218.199 101.969C217.923 101.969 217.699 102.107 217.699 102.278Z" fill="#003849"/>
<path fill-rule="evenodd" clip-rule="evenodd" d="M208.262 109.267L210.192 111.201C210.313 111.322 210.509 111.321 210.629 111.201C210.75 111.08 210.75 110.884 210.629 110.763L208.696 108.829C208.575 108.708 208.379 108.709 208.258 108.83C208.138 108.95 208.138 109.146 208.259 109.267" fill="#003849"/>
<path fill-rule="evenodd" clip-rule="evenodd" d="M228.287 109.243L225.939 111.591C225.831 111.714 225.836 111.899 225.952 112.015C226.067 112.131 226.253 112.137 226.376 112.029L228.724 109.681C228.832 109.558 228.826 109.373 228.711 109.257C228.595 109.141 228.41 109.135 228.287 109.243Z" fill="#003849"/>
<path fill-rule="evenodd" clip-rule="evenodd" d="M198.179 118.598C199.845 119.154 201.554 119.569 203.289 119.841C203.678 119.901 203.846 119.306 203.454 119.241C201.719 118.969 200.01 118.554 198.344 117.998C197.965 117.872 197.803 118.469 198.179 118.598Z" fill="#003849"/>
<path fill-rule="evenodd" clip-rule="evenodd" d="M233.145 120.256C234.845 119.977 236.555 119.825 238.255 119.566C238.647 119.506 238.48 118.911 238.09 118.966C236.39 119.226 234.677 119.377 232.98 119.656C232.589 119.721 232.755 120.316 233.145 120.256Z" fill="#003849"/>
<path fill-rule="evenodd" clip-rule="evenodd" d="M233.338 127.923C234.078 127.923 234.809 128.102 235.548 128.106C235.719 128.105 235.856 127.922 235.856 127.697C235.856 127.472 235.719 127.289 235.548 127.289C234.809 127.289 234.078 127.109 233.338 127.106C233.228 127.105 233.125 127.183 233.07 127.31C233.014 127.437 233.014 127.593 233.07 127.719C233.125 127.846 233.228 127.924 233.338 127.923" fill="#003849"/>
<path fill-rule="evenodd" clip-rule="evenodd" d="M200.609 128.242C201.559 128.265 202.51 128.199 203.453 128.046C203.617 127.985 203.714 127.761 203.669 127.544C203.62 127.331 203.453 127.205 203.289 127.259C202.4 127.397 201.504 127.453 200.609 127.427C200.438 127.427 200.3 127.609 200.3 127.834C200.3 128.06 200.438 128.242 200.609 128.242" fill="#003849"/>
<path fill-rule="evenodd" clip-rule="evenodd" d="M54.0777 27.438C53.3587 24.2 50.7537 17.334 46.6197 17.456C41.7727 17.602 43.1717 26.706 43.4067 29.58C43.5357 31.158 46.0067 31.171 45.8797 29.58C45.8477 29.18 45.7187 27.897 45.6417 26.39C45.9306 26.5843 46.2974 26.6218 46.6197 26.49C47.9777 26.006 49.3847 25.752 50.7107 25.19C51.1316 26.1267 51.4608 27.1019 51.6937 28.102C52.0397 29.658 54.4237 29.002 54.0777 27.444M45.9627 24.102C45.8251 24.1518 45.697 24.2245 45.5837 24.317C45.5837 21.971 45.8397 19.777 46.8497 19.917C48.0387 20.082 48.9937 21.757 49.6267 22.977C48.4577 23.491 47.1637 23.677 45.9627 24.101" fill="#D67676"/>
<path fill-rule="evenodd" clip-rule="evenodd" d="M121.5 88.501C120.113 89.514 118.567 89.526 117.629 87.947C116.629 86.258 117.855 84.82 119.486 84.331C120.118 84.1282 120.477 83.4632 120.301 82.8235C120.125 82.1837 119.475 81.7967 118.829 81.946C115.773 82.861 113.865 85.746 115.315 88.836C115.931 90.197 117.141 91.1981 118.593 91.5497C120.045 91.9013 121.578 91.5642 122.749 90.636C124.024 89.707 122.792 87.559 121.501 88.501" fill="#4094A8"/>
<path fill-rule="evenodd" clip-rule="evenodd" d="M71.7934 67.613C71.34 67.6286 70.9805 68.0008 70.9805 68.4545C70.9805 68.9082 71.34 69.2804 71.7934 69.296C72.2469 69.2804 72.6064 68.9082 72.6064 68.4545C72.6064 68.0008 72.2469 67.6287 71.7934 67.613Z" fill="#4094A8"/>
<path fill-rule="evenodd" clip-rule="evenodd" d="M73.3042 65.089C72.8508 65.1046 72.4912 65.4768 72.4912 65.9305C72.4912 66.3842 72.8508 66.7563 73.3042 66.772C73.7576 66.7563 74.1171 66.3842 74.1171 65.9305C74.1171 65.4768 73.7576 65.1046 73.3042 65.089Z" fill="#4094A8"/>
<path fill-rule="evenodd" clip-rule="evenodd" d="M74.4829 67.949C74.0294 67.9647 73.6699 68.3368 73.6699 68.7905C73.6699 69.2442 74.0294 69.6164 74.4829 69.632C74.9363 69.6164 75.2958 69.2442 75.2958 68.7905C75.2958 68.3368 74.9363 67.9647 74.4829 67.949Z" fill="#4094A8"/>
<path fill-rule="evenodd" clip-rule="evenodd" d="M313.908 99.114C313.454 99.1297 313.095 99.5018 313.095 99.9555C313.095 100.409 313.454 100.781 313.908 100.797C314.361 100.781 314.72 100.409 314.72 99.9555C314.72 99.5019 314.361 99.1298 313.908 99.114Z" fill="#4094A8"/>
<path fill-rule="evenodd" clip-rule="evenodd" d="M315.425 96.586C314.972 96.6017 314.612 96.9738 314.612 97.4275C314.612 97.8812 314.972 98.2534 315.425 98.269C315.879 98.2534 316.238 97.8812 316.238 97.4275C316.238 96.9738 315.879 96.6017 315.425 96.586" fill="#4094A8"/>
<path fill-rule="evenodd" clip-rule="evenodd" d="M316.6 99.446C316.147 99.4616 315.787 99.8338 315.787 100.287C315.787 100.741 316.147 101.113 316.6 101.129C317.053 101.113 317.413 100.741 317.413 100.287C317.413 99.8338 317.053 99.4616 316.6 99.446" fill="#4094A8"/>
<g opacity="0.3">
<mask id="mask2_0_2898" style="mask-type:alpha" maskUnits="userSpaceOnUse" x="172" y="56" width="49" height="27">
<rect x="172.572" y="56.97" width="48.029" height="25.043" fill="white"/>
</mask>
<g mask="url(#mask2_0_2898)">
<path fill-rule="evenodd" clip-rule="evenodd" d="M206.172 81.556C197.669 82.1971 189.129 82.1657 180.631 81.462C170.563 80.621 169.412 69.175 180.107 72.715C174.941 60.194 185.133 53.643 192.651 66.205C193.561 52.105 211.322 55.093 207.058 68.8C212.485 65.867 222.2 67.711 220.373 76.418C219.273 82.113 210.873 81.635 206.173 81.556" fill="#90CCD6"/>
</g>
</g>
</g>
</g>
</svg>
